<?xml version="1.0" encoding="UTF-8"?>
<svg xmlns="http://www.w3.org/2000/svg" xmlns:xlink="http://www.w3.org/1999/xlink" width="810pt" height="809.999993pt" viewBox="0 0 810 809.999993" version="1.2">
<g id="surface1">
<path style=" stroke:none;fill-rule:nonzero;fill:rgb(100%,100%,100%);fill-opacity:1;" d="M 68.847656 277.894531 C 53.007812 313 29.5625 380.203125 38.984375 463.789062 C 51.078125 571.03125 110.9375 655.582031 169.167969 703.089844 C 362.394531 860.742188 716.109375 758.894531 762.949219 610.386719 C 771.445312 583.441406 769.054688 557.460938 766.117188 525.488281 C 756.765625 423.789062 707.515625 393.566406 674.390625 285.585938 C 644.246094 187.316406 673.964844 176.261719 645.777344 132.574219 C 584.628906 37.804688 408.117188 33.03125 286.667969 78.460938 C 240.015625 95.914062 126.816406 149.445312 68.847656 277.894531 "/>
<path style=" stroke:none;fill-rule:nonzero;fill:rgb(97.648621%,78.819275%,19.999695%);fill-opacity:1;" d="M 657.503906 166.28125 L 771.925781 166.28125 L 771.925781 379.195312 L 657.503906 379.195312 L 657.503906 166.28125 "/>
<path style=" stroke:none;fill-rule:nonzero;fill:rgb(0%,0%,0%);fill-opacity:1;" d="M 771.925781 380.519531 C 771.234375 380.519531 770.671875 379.953125 770.671875 379.265625 L 770.671875 166.375 C 770.671875 165.683594 771.234375 165.121094 771.925781 165.121094 C 772.617188 165.121094 773.183594 165.683594 773.183594 166.375 L 773.183594 379.265625 C 773.183594 379.953125 772.617188 380.519531 771.925781 380.519531 "/>
<path style=" stroke:none;fill-rule:nonzero;fill:rgb(100%,100%,100%);fill-opacity:1;" d="M 117.355469 140.882812 L 427.402344 140.882812 L 427.402344 379.195312 L 117.355469 379.195312 L 117.355469 140.882812 "/>
<path style=" stroke:none;fill-rule:nonzero;fill:rgb(97.648621%,78.819275%,19.999695%);fill-opacity:1;" d="M 37.078125 166.476562 L 116.964844 166.476562 C 117.359375 166.476562 117.679688 166.15625 117.679688 165.761719 L 117.679688 141.246094 C 117.679688 140.847656 117.359375 140.527344 116.960938 140.527344 L 92.773438 140.542969 C 92.671875 140.542969 92.574219 140.5625 92.484375 140.601562 L 36.789062 165.109375 C 36.082031 165.421875 36.300781 166.476562 37.078125 166.476562 "/>
<path style=" stroke:none;fill-rule:nonzero;fill:rgb(97.648621%,78.819275%,19.999695%);fill-opacity:1;" d="M 656.824219 166.277344 L 781.195312 166.277344 C 781.839844 166.277344 782.011719 165.398438 781.421875 165.148438 L 723.027344 140.332031 L 656.824219 140.328125 L 656.824219 166.277344 "/>
<path style=" stroke:none;fill-rule:nonzero;fill:rgb(0%,0%,0%);fill-opacity:1;" d="M 781.078125 167.53125 L 725.308594 167.53125 C 724.621094 167.53125 724.054688 166.96875 724.054688 166.273438 C 724.054688 165.585938 724.621094 165.019531 725.308594 165.019531 L 777.921875 165.019531 L 722.769531 141.585938 L 667.617188 141.582031 C 666.925781 141.582031 666.363281 141.023438 666.363281 140.328125 C 666.363281 139.632812 666.925781 139.074219 667.617188 139.074219 L 723.28125 139.078125 L 723.519531 139.175781 L 781.808594 163.945312 C 782.636719 164.296875 783.085938 165.15625 782.910156 166.035156 C 782.726562 166.914062 781.980469 167.53125 781.078125 167.53125 "/>
<path style=" stroke:none;fill-rule:nonzero;fill:rgb(97.648621%,78.819275%,19.999695%);fill-opacity:1;" d="M 501.6875 37.023438 L 275.734375 37.023438 L 449.269531 115.6875 L 672.078125 115.6875 C 672.808594 115.6875 673.027344 114.683594 672.359375 114.382812 L 501.6875 37.023438 "/>
<path style=" stroke:none;fill-rule:nonzero;fill:rgb(0%,0%,0%);fill-opacity:1;" d="M 672.605469 116.9375 L 662.839844 116.9375 C 662.148438 116.9375 661.582031 116.375 661.582031 115.679688 C 661.582031 114.992188 662.148438 114.425781 662.839844 114.425781 L 669.429688 114.425781 L 501.421875 38.277344 L 291.699219 38.277344 C 291.003906 38.277344 290.441406 37.710938 290.441406 37.019531 C 290.441406 36.332031 291.003906 35.765625 291.699219 35.765625 L 501.96875 35.765625 L 502.214844 35.878906 L 673.355469 113.457031 C 674.140625 113.808594 674.570312 114.648438 674.386719 115.5 C 674.203125 116.347656 673.46875 116.9375 672.605469 116.9375 "/>
<path style=" stroke:none;fill-rule:nonzero;fill:rgb(97.648621%,78.819275%,19.999695%);fill-opacity:1;" d="M 449.722656 115.746094 L 100.15625 115.746094 L 275.480469 37.023438 L 449.722656 115.746094 "/>
<path style=" stroke:none;fill-rule:nonzero;fill:rgb(0%,0%,0%);fill-opacity:1;" d="M 106.460938 114.394531 L 443.453125 114.394531 L 275.480469 38.507812 Z M 449.726562 117.09375 L 100.15625 117.09375 C 99.519531 117.09375 98.96875 116.648438 98.835938 116.023438 C 98.703125 115.40625 99.023438 114.769531 99.605469 114.511719 L 274.929688 35.789062 C 275.277344 35.632812 275.683594 35.632812 276.039062 35.796875 L 450.28125 114.511719 C 450.859375 114.777344 451.179688 115.40625 451.046875 116.03125 C 450.910156 116.648438 450.363281 117.09375 449.726562 117.09375 "/>
<path style=" stroke:none;fill-rule:nonzero;fill:rgb(100%,100%,100%);fill-opacity:1;" d="M 657.449219 140.628906 L 427.503906 140.628906 L 427.503906 378.773438 L 657.449219 378.773438 L 657.449219 140.628906 "/>
<path style=" stroke:none;fill-rule:nonzero;fill:rgb(97.648621%,78.819275%,19.999695%);fill-opacity:1;" d="M 198.054688 379.195312 L 175.773438 379.195312 L 175.773438 140.882812 L 198.054688 140.882812 L 198.054688 379.195312 "/>
<path style=" stroke:none;fill-rule:nonzero;fill:rgb(97.648621%,78.819275%,19.999695%);fill-opacity:1;" d="M 255.570312 379.195312 L 233.289062 379.195312 L 233.289062 140.882812 L 255.570312 140.882812 L 255.570312 379.195312 "/>
<path style=" stroke:none;fill-rule:nonzero;fill:rgb(97.648621%,78.819275%,19.999695%);fill-opacity:1;" d="M 313.089844 379.195312 L 290.804688 379.195312 L 290.804688 140.882812 L 313.089844 140.882812 L 313.089844 379.195312 "/>
<path style=" stroke:none;fill-rule:nonzero;fill:rgb(97.648621%,78.819275%,19.999695%);fill-opacity:1;" d="M 370.605469 379.195312 L 348.324219 379.195312 L 348.324219 140.882812 L 370.605469 140.882812 L 370.605469 379.195312 "/>
<path style=" stroke:none;fill-rule:nonzero;fill:rgb(97.648621%,78.819275%,19.999695%);fill-opacity:1;" d="M 427.402344 379.195312 L 405.121094 379.195312 L 405.121094 140.882812 L 427.402344 140.882812 L 427.402344 379.195312 "/>
<path style=" stroke:none;fill-rule:nonzero;fill:rgb(97.648621%,78.819275%,19.999695%);fill-opacity:1;" d="M 140.539062 379.195312 L 118.257812 379.195312 L 118.257812 140.882812 L 140.539062 140.882812 L 140.539062 379.195312 "/>
<path style=" stroke:none;fill-rule:nonzero;fill:rgb(97.648621%,78.819275%,19.999695%);fill-opacity:1;" d="M 484.921875 379.195312 L 462.636719 379.195312 L 462.636719 140.882812 L 484.921875 140.882812 L 484.921875 379.195312 "/>
<path style=" stroke:none;fill-rule:nonzero;fill:rgb(97.648621%,78.819275%,19.999695%);fill-opacity:1;" d="M 542.4375 379.195312 L 520.15625 379.195312 L 520.15625 140.882812 L 542.4375 140.882812 L 542.4375 379.195312 "/>
<path style=" stroke:none;fill-rule:nonzero;fill:rgb(97.648621%,78.819275%,19.999695%);fill-opacity:1;" d="M 599.953125 379.195312 L 577.671875 379.195312 L 577.671875 140.882812 L 599.953125 140.882812 L 599.953125 379.195312 "/>
<path style=" stroke:none;fill-rule:nonzero;fill:rgb(97.648621%,78.819275%,19.999695%);fill-opacity:1;" d="M 657.46875 379.195312 L 635.1875 379.195312 L 635.1875 140.882812 L 657.46875 140.882812 L 657.46875 379.195312 "/>
<path style=" stroke:none;fill-rule:nonzero;fill:rgb(97.648621%,78.819275%,19.999695%);fill-opacity:1;" d="M 657.449219 115.84375 L 427.507812 115.84375 L 427.507812 140.917969 L 657.449219 140.917969 L 657.449219 115.84375 "/>
<path style=" stroke:none;fill-rule:nonzero;fill:rgb(0%,0%,0%);fill-opacity:1;" d="M 428.851562 139.570312 L 656.09375 139.570312 L 656.09375 117.199219 L 428.851562 117.199219 Z M 657.445312 142.273438 L 427.503906 142.273438 C 426.753906 142.273438 426.148438 141.664062 426.148438 140.917969 L 426.148438 115.847656 C 426.148438 115.101562 426.753906 114.5 427.503906 114.5 L 657.445312 114.5 C 658.1875 114.5 658.792969 115.101562 658.792969 115.847656 L 658.792969 140.917969 C 658.792969 141.664062 658.1875 142.273438 657.445312 142.273438 "/>
<path style=" stroke:none;fill-rule:nonzero;fill:rgb(97.648621%,78.819275%,19.999695%);fill-opacity:1;" d="M 348.324219 379.195312 L 427.40625 379.195312 L 427.40625 433.191406 L 348.324219 433.191406 L 348.324219 379.195312 "/>
<path style=" stroke:none;fill-rule:nonzero;fill:rgb(0%,0%,0%);fill-opacity:1;" d="M 349.671875 431.839844 L 426.054688 431.839844 L 426.054688 380.542969 L 349.671875 380.542969 Z M 427.40625 434.542969 L 348.324219 434.542969 C 347.574219 434.542969 346.96875 433.9375 346.96875 433.191406 L 346.96875 379.195312 C 346.96875 378.453125 347.574219 377.84375 348.324219 377.84375 L 427.40625 377.84375 C 428.148438 377.84375 428.753906 378.453125 428.753906 379.195312 L 428.753906 433.191406 C 428.753906 433.9375 428.148438 434.542969 427.40625 434.542969 "/>
<path style=" stroke:none;fill-rule:nonzero;fill:rgb(97.648621%,78.819275%,19.999695%);fill-opacity:1;" d="M 657.367188 433.007812 L 771.96875 433.007812 L 771.96875 379.195312 L 657.367188 379.195312 L 657.367188 433.007812 "/>
<path style=" stroke:none;fill-rule:nonzero;fill:rgb(0%,0%,0%);fill-opacity:1;" d="M 658.722656 431.652344 L 770.621094 431.652344 L 770.621094 380.539062 L 658.722656 380.539062 Z M 771.976562 434.351562 L 657.371094 434.351562 C 656.625 434.351562 656.023438 433.746094 656.023438 433.003906 L 656.023438 379.195312 C 656.023438 378.449219 656.625 377.839844 657.371094 377.839844 L 771.976562 377.839844 C 772.714844 377.839844 773.324219 378.449219 773.324219 379.195312 L 773.324219 433.003906 C 773.324219 433.746094 772.714844 434.351562 771.976562 434.351562 "/>
<path style=" stroke:none;fill-rule:nonzero;fill:rgb(97.648621%,78.819275%,19.999695%);fill-opacity:1;" d="M 46.921875 166.277344 L 118.570312 166.277344 L 118.570312 378.996094 L 46.921875 378.996094 L 46.921875 166.277344 "/>
<path style=" stroke:none;fill-rule:nonzero;fill:rgb(0%,0%,0%);fill-opacity:1;" d="M 46.921875 379.484375 C 46.226562 379.484375 45.667969 378.917969 45.667969 378.230469 L 45.667969 167.058594 C 45.667969 166.363281 46.226562 165.804688 46.921875 165.804688 C 47.613281 165.804688 48.175781 166.363281 48.175781 167.058594 L 48.175781 378.230469 C 48.175781 378.917969 47.613281 379.484375 46.921875 379.484375 "/>
<path style=" stroke:none;fill-rule:nonzero;fill:rgb(97.648621%,78.819275%,19.999695%);fill-opacity:1;" d="M 427.507812 115.84375 L 118.257812 115.84375 L 118.257812 140.917969 L 427.507812 140.917969 L 427.507812 115.84375 "/>
<path style=" stroke:none;fill-rule:nonzero;fill:rgb(0%,0%,0%);fill-opacity:1;" d="M 119.609375 139.570312 L 426.148438 139.570312 L 426.148438 117.199219 L 119.609375 117.199219 Z M 427.503906 142.273438 L 118.257812 142.273438 C 117.511719 142.273438 116.90625 141.664062 116.90625 140.917969 L 116.90625 115.847656 C 116.90625 115.101562 117.511719 114.5 118.257812 114.5 L 427.503906 114.5 C 428.246094 114.5 428.851562 115.101562 428.851562 115.847656 L 428.851562 140.917969 C 428.851562 141.664062 428.246094 142.273438 427.503906 142.273438 "/>
<path style=" stroke:none;fill-rule:nonzero;fill:rgb(97.648621%,78.819275%,19.999695%);fill-opacity:1;" d="M 46.972656 433.15625 L 118.578125 433.15625 L 118.578125 379.308594 L 46.972656 379.308594 L 46.972656 433.15625 "/>
<path style=" stroke:none;fill-rule:nonzero;fill:rgb(0%,0%,0%);fill-opacity:1;" d="M 48.324219 431.804688 L 117.230469 431.804688 L 117.230469 380.664062 L 48.324219 380.664062 Z M 118.582031 434.503906 L 46.972656 434.503906 C 46.226562 434.503906 45.621094 433.898438 45.621094 433.15625 L 45.621094 379.308594 C 45.621094 378.566406 46.226562 377.960938 46.972656 377.960938 L 118.582031 377.960938 C 119.328125 377.960938 119.929688 378.566406 119.929688 379.308594 L 119.929688 433.15625 C 119.929688 433.898438 119.328125 434.503906 118.582031 434.503906 "/>
<path style=" stroke:none;fill-rule:nonzero;fill:rgb(97.648621%,78.819275%,19.999695%);fill-opacity:1;" d="M 118.898438 379.195312 L 198.019531 379.195312 L 198.019531 433.191406 L 118.898438 433.191406 L 118.898438 379.195312 "/>
<path style=" stroke:none;fill-rule:nonzero;fill:rgb(0%,0%,0%);fill-opacity:1;" d="M 120.25 431.839844 L 196.667969 431.839844 L 196.667969 380.542969 L 120.25 380.542969 Z M 198.019531 434.542969 L 118.898438 434.542969 C 118.152344 434.542969 117.546875 433.9375 117.546875 433.191406 L 117.546875 379.195312 C 117.546875 378.453125 118.152344 377.84375 118.898438 377.84375 L 198.019531 377.84375 C 198.765625 377.84375 199.371094 378.453125 199.371094 379.195312 L 199.371094 433.191406 C 199.371094 433.9375 198.765625 434.542969 198.019531 434.542969 "/>
<path style=" stroke:none;fill-rule:nonzero;fill:rgb(97.648621%,78.819275%,19.999695%);fill-opacity:1;" d="M 198.46875 379.195312 L 348.324219 379.195312 L 348.324219 433.191406 L 198.46875 433.191406 L 198.46875 379.195312 "/>
<path style=" stroke:none;fill-rule:nonzero;fill:rgb(0%,0%,0%);fill-opacity:1;" d="M 199.820312 431.839844 L 346.96875 431.839844 L 346.96875 380.542969 L 199.820312 380.542969 Z M 348.324219 434.542969 L 198.46875 434.542969 C 197.722656 434.542969 197.117188 433.9375 197.117188 433.191406 L 197.117188 379.195312 C 197.117188 378.453125 197.722656 377.84375 198.46875 377.84375 L 348.324219 377.84375 C 349.066406 377.84375 349.671875 378.453125 349.671875 379.195312 L 349.671875 433.191406 C 349.671875 433.9375 349.066406 434.542969 348.324219 434.542969 "/>
<path style=" stroke:none;fill-rule:nonzero;fill:rgb(0%,0%,0%);fill-opacity:1;" d="M 91.144531 167.738281 L 36.59375 167.738281 C 35.703125 167.738281 34.949219 167.125 34.765625 166.253906 C 34.582031 165.382812 35.023438 164.519531 35.839844 164.160156 L 92.355469 139.292969 L 106.933594 139.28125 C 107.625 139.28125 108.1875 139.84375 108.191406 140.535156 C 108.191406 141.230469 107.628906 141.789062 106.933594 141.789062 L 92.882812 141.800781 L 39.640625 165.230469 L 91.144531 165.230469 C 91.835938 165.230469 92.398438 165.789062 92.398438 166.484375 C 92.398438 167.175781 91.835938 167.738281 91.144531 167.738281 "/>
<path style=" stroke:none;fill-rule:nonzero;fill:rgb(100%,100%,100%);fill-opacity:1;" d="M 701.335938 240.105469 L 679.054688 240.105469 L 679.054688 196.4375 L 701.335938 196.4375 L 701.335938 240.105469 "/>
<path style=" stroke:none;fill-rule:nonzero;fill:rgb(100%,100%,100%);fill-opacity:1;" d="M 701.335938 332.550781 L 679.054688 332.550781 L 679.054688 288.882812 L 701.335938 288.882812 L 701.335938 332.550781 "/>
<path style=" stroke:none;fill-rule:nonzero;fill:rgb(100%,100%,100%);fill-opacity:1;" d="M 92.1875 240.105469 L 69.90625 240.105469 L 69.90625 196.433594 L 92.1875 196.433594 L 92.1875 240.105469 "/>
<path style=" stroke:none;fill-rule:nonzero;fill:rgb(100%,100%,100%);fill-opacity:1;" d="M 92.1875 332.550781 L 69.90625 332.550781 L 69.90625 288.882812 L 92.1875 288.882812 L 92.1875 332.550781 "/>
<path style=" stroke:none;fill-rule:nonzero;fill:rgb(100%,100%,100%);fill-opacity:1;" d="M 748.253906 240.101562 L 725.972656 240.101562 L 725.972656 196.433594 L 748.253906 196.433594 L 748.253906 240.101562 "/>
<path style=" stroke:none;fill-rule:nonzero;fill:rgb(100%,100%,100%);fill-opacity:1;" d="M 748.253906 332.546875 L 725.972656 332.546875 L 725.972656 288.878906 L 748.253906 288.878906 L 748.253906 332.546875 "/>
<path style=" stroke:none;fill-rule:nonzero;fill:rgb(97.648621%,78.819275%,19.999695%);fill-opacity:1;" d="M 427.734375 379.195312 L 657.628906 379.195312 L 657.628906 433.195312 L 427.734375 433.195312 L 427.734375 379.195312 "/>
<path style=" stroke:none;fill-rule:nonzero;fill:rgb(0%,0%,0%);fill-opacity:1;" d="M 429.085938 431.84375 L 656.277344 431.84375 L 656.277344 380.546875 L 429.085938 380.546875 Z M 657.625 434.542969 L 427.734375 434.542969 C 426.988281 434.542969 426.382812 433.9375 426.382812 433.195312 L 426.382812 379.199219 C 426.382812 378.453125 426.988281 377.847656 427.734375 377.847656 L 657.625 377.847656 C 658.371094 377.847656 658.980469 378.453125 658.980469 379.199219 L 658.980469 433.195312 C 658.980469 433.9375 658.371094 434.542969 657.625 434.542969 "/>
<path style=" stroke:none;fill-rule:nonzero;fill:rgb(97.648621%,78.819275%,19.999695%);fill-opacity:1;" d="M 332.425781 391.644531 L 295.457031 391.644531 C 294.710938 391.644531 294.105469 391.039062 294.105469 390.296875 C 294.105469 389.550781 294.710938 388.945312 295.457031 388.945312 L 332.425781 388.945312 C 333.167969 388.945312 333.773438 389.550781 333.773438 390.296875 C 333.773438 391.039062 333.167969 391.644531 332.425781 391.644531 "/>
<path style=" stroke:none;fill-rule:nonzero;fill:rgb(97.648621%,78.819275%,19.999695%);fill-opacity:1;" d="M 332.425781 402.4375 L 277.554688 402.4375 C 276.808594 402.4375 276.207031 401.832031 276.207031 401.089844 C 276.207031 400.339844 276.808594 399.734375 277.554688 399.734375 L 332.425781 399.734375 C 333.167969 399.734375 333.773438 400.339844 333.773438 401.089844 C 333.773438 401.832031 333.167969 402.4375 332.425781 402.4375 "/>
<path style=" stroke:none;fill-rule:nonzero;fill:rgb(97.648621%,78.819275%,19.999695%);fill-opacity:1;" d="M 332.425781 413.226562 L 259.363281 413.226562 C 258.617188 413.226562 258.011719 412.625 258.011719 411.875 C 258.011719 411.132812 258.617188 410.527344 259.363281 410.527344 L 332.425781 410.527344 C 333.167969 410.527344 333.773438 411.132812 333.773438 411.875 C 333.773438 412.625 333.167969 413.226562 332.425781 413.226562 "/>
<path style=" stroke:none;fill-rule:nonzero;fill:rgb(97.648621%,78.819275%,19.999695%);fill-opacity:1;" d="M 332.425781 424.019531 L 212.621094 424.019531 C 211.875 424.019531 211.269531 423.414062 211.269531 422.667969 C 211.269531 421.925781 211.875 421.320312 212.621094 421.320312 L 332.425781 421.320312 C 333.167969 421.320312 333.773438 421.925781 333.773438 422.667969 C 333.773438 423.414062 333.167969 424.019531 332.425781 424.019531 "/>
<path style=" stroke:none;fill-rule:nonzero;fill:rgb(0%,0%,0%);fill-opacity:1;" d="M 520.15625 193.007812 C 519.460938 193.007812 518.902344 192.449219 518.902344 191.753906 L 518.902344 156.433594 C 518.902344 155.742188 519.460938 155.179688 520.15625 155.179688 C 520.851562 155.179688 521.414062 155.742188 521.414062 156.433594 L 521.414062 191.753906 C 521.414062 192.449219 520.851562 193.007812 520.15625 193.007812 "/>
<path style=" stroke:none;fill-rule:nonzero;fill:rgb(0%,0%,0%);fill-opacity:1;" d="M 577.675781 247.285156 C 576.976562 247.285156 576.417969 246.722656 576.417969 246.03125 L 576.417969 154.816406 C 576.417969 154.125 576.976562 153.5625 577.675781 153.5625 C 578.363281 153.5625 578.929688 154.125 578.929688 154.816406 L 578.929688 246.03125 C 578.929688 246.722656 578.363281 247.285156 577.675781 247.285156 "/>
<path style=" stroke:none;fill-rule:nonzero;fill:rgb(0%,0%,0%);fill-opacity:1;" d="M 599.953125 352.28125 C 599.261719 352.28125 598.699219 351.722656 598.699219 351.03125 L 598.699219 179.566406 C 598.699219 178.871094 599.261719 178.3125 599.953125 178.3125 C 600.644531 178.3125 601.207031 178.871094 601.207031 179.566406 L 601.207031 351.03125 C 601.207031 351.722656 600.644531 352.28125 599.953125 352.28125 "/>
<path style=" stroke:none;fill-rule:nonzero;fill:rgb(0%,0%,0%);fill-opacity:1;" d="M 427.402344 370.964844 C 426.710938 370.964844 426.148438 370.402344 426.148438 369.707031 L 426.148438 151.59375 C 426.148438 150.898438 426.710938 150.339844 427.402344 150.339844 C 428.097656 150.339844 428.660156 150.898438 428.660156 151.59375 L 428.660156 369.707031 C 428.660156 370.402344 428.097656 370.964844 427.402344 370.964844 "/>
<path style=" stroke:none;fill-rule:nonzero;fill:rgb(0%,0%,0%);fill-opacity:1;" d="M 118.257812 371.621094 C 117.5625 371.621094 117 371.0625 117 370.367188 L 117 150.019531 C 117 149.328125 117.5625 148.765625 118.257812 148.765625 C 118.949219 148.765625 119.511719 149.328125 119.511719 150.019531 L 119.511719 370.367188 C 119.511719 371.0625 118.949219 371.621094 118.257812 371.621094 "/>
<path style=" stroke:none;fill-rule:nonzero;fill:rgb(0%,0%,0%);fill-opacity:1;" d="M 657.472656 370.574219 C 656.78125 370.574219 656.214844 370.015625 656.214844 369.324219 L 656.214844 151.121094 C 656.214844 150.425781 656.78125 149.867188 657.472656 149.867188 C 658.167969 149.867188 658.722656 150.425781 658.722656 151.121094 L 658.722656 369.324219 C 658.722656 370.015625 658.167969 370.574219 657.472656 370.574219 "/>
<path style=" stroke:none;fill-rule:nonzero;fill:rgb(97.648621%,78.819275%,19.999695%);fill-opacity:1;" d="M 57.496094 542.84375 C 23.058594 511.113281 40.882812 490.652344 40.882812 490.652344 C 40.882812 490.652344 56.265625 465.742188 110.253906 498.304688 C 164.246094 530.871094 216.5 518.765625 228.320312 513.886719 C 240.136719 509.003906 281.429688 478.320312 304.699219 476.597656 C 317.648438 475.636719 333.148438 485.363281 319.550781 511.667969 C 291.433594 566.058594 215.078125 572.261719 215.078125 572.261719 C 215.078125 572.261719 178.066406 579.210938 140.042969 572.476562 C 140.042969 572.476562 91.9375 574.570312 57.496094 542.84375 "/>
<path style=" stroke:none;fill-rule:nonzero;fill:rgb(97.648621%,78.819275%,19.999695%);fill-opacity:1;" d="M 146.867188 549.339844 L 167.667969 564.296875 L 162.414062 575.746094 L 142.878906 562.347656 L 146.867188 549.339844 "/>
<path style=" stroke:none;fill-rule:nonzero;fill:rgb(0%,0%,0%);fill-opacity:1;" d="M 144.460938 561.796875 L 161.855469 573.722656 L 165.976562 564.746094 L 147.605469 551.535156 Z M 162.414062 577.09375 C 162.144531 577.09375 161.875 577.011719 161.648438 576.855469 L 142.113281 563.460938 C 141.628906 563.128906 141.414062 562.515625 141.585938 561.949219 L 145.574219 548.945312 C 145.703125 548.53125 146.023438 548.203125 146.433594 548.0625 C 146.847656 547.925781 147.300781 547.992188 147.65625 548.246094 L 168.457031 563.203125 C 168.980469 563.578125 169.164062 564.273438 168.898438 564.859375 L 163.640625 576.308594 C 163.476562 576.671875 163.15625 576.941406 162.773438 577.046875 C 162.652344 577.078125 162.53125 577.09375 162.414062 577.09375 "/>
<path style=" stroke:none;fill-rule:nonzero;fill:rgb(97.648621%,78.819275%,19.999695%);fill-opacity:1;" d="M 152.113281 562.351562 L 155.347656 559.082031 C 156.511719 557.90625 158.328125 557.679688 159.746094 558.539062 L 162.976562 560.671875 L 164.410156 557.074219 C 164.945312 555.921875 166.261719 555.347656 167.472656 555.753906 C 174.847656 558.21875 198.40625 569.175781 206.601562 575.242188 C 216.296875 582.417969 209.410156 598.386719 192.507812 596.761719 C 179.109375 595.46875 160.800781 580.539062 153.777344 574.398438 C 152.394531 573.1875 152.746094 570.960938 154.425781 570.226562 L 154.441406 570.21875 L 151.722656 566.902344 C 150.738281 565.488281 150.902344 563.578125 152.113281 562.351562 "/>
<path style=" stroke:none;fill-rule:nonzero;fill:rgb(0%,0%,0%);fill-opacity:1;" d="M 152.804688 566.09375 L 155.488281 569.359375 C 155.757812 569.691406 155.855469 570.132812 155.75 570.550781 C 155.648438 570.960938 155.351562 571.304688 154.953125 571.46875 C 154.441406 571.691406 154.316406 572.15625 154.289062 572.34375 C 154.261719 572.53125 154.238281 573.003906 154.667969 573.378906 C 161.769531 579.589844 179.679688 594.164062 192.636719 595.417969 C 202.054688 596.332031 207.34375 591.574219 209.011719 587.230469 C 210.585938 583.136719 209.355469 578.960938 205.796875 576.332031 C 197.722656 570.347656 174.265625 559.441406 167.042969 557.035156 C 166.488281 556.847656 165.882812 557.109375 165.636719 557.644531 L 164.230469 561.171875 C 164.082031 561.550781 163.769531 561.839844 163.382812 561.960938 C 162.992188 562.082031 162.570312 562.019531 162.230469 561.800781 L 159 559.664062 C 158.160156 559.15625 157.035156 559.292969 156.308594 560.03125 L 153.074219 563.300781 L 152.113281 562.351562 L 153.074219 563.300781 C 152.332031 564.050781 152.222656 565.21875 152.804688 566.09375 Z M 194.941406 598.234375 C 194.117188 598.234375 193.261719 598.191406 192.375 598.105469 C 178.640625 596.78125 160.183594 581.792969 152.886719 575.410156 C 151.890625 574.542969 151.417969 573.242188 151.617188 571.933594 C 151.730469 571.203125 152.042969 570.535156 152.511719 569.992188 L 150.675781 567.761719 C 150.652344 567.734375 150.632812 567.703125 150.609375 567.675781 C 149.257812 565.726562 149.484375 563.09375 151.152344 561.402344 L 154.386719 558.132812 C 155.996094 556.503906 158.488281 556.199219 160.445312 557.382812 L 162.335938 558.628906 L 163.15625 556.578125 C 164.011719 554.726562 166.039062 553.855469 167.902344 554.472656 C 175.445312 556.992188 198.988281 567.925781 207.40625 574.160156 C 211.910156 577.496094 213.53125 583.007812 211.535156 588.199219 C 209.6875 593.003906 204.285156 598.234375 194.941406 598.234375 "/>
<path style=" stroke:none;fill-rule:nonzero;fill:rgb(0%,0%,0%);fill-opacity:1;" d="M 174.074219 581.890625 C 173.878906 581.890625 173.679688 581.847656 173.492188 581.757812 C 172.820312 581.4375 172.535156 580.632812 172.855469 579.957031 L 178.328125 568.453125 C 178.648438 567.777344 179.457031 567.492188 180.128906 567.808594 C 180.804688 568.132812 181.089844 568.9375 180.769531 569.613281 L 175.292969 581.117188 C 175.0625 581.605469 174.578125 581.890625 174.074219 581.890625 "/>
<path style=" stroke:none;fill-rule:nonzero;fill:rgb(0%,0%,0%);fill-opacity:1;" d="M 199.445312 549.679688 C 199.167969 549.679688 198.890625 549.59375 198.648438 549.417969 C 198.046875 548.976562 197.914062 548.136719 198.355469 547.53125 L 246.195312 482.0625 C 246.488281 481.664062 246.980469 481.457031 247.46875 481.523438 C 247.964844 481.589844 248.378906 481.921875 248.554688 482.386719 L 255.855469 501.921875 C 256.113281 502.621094 255.761719 503.398438 255.0625 503.65625 C 254.363281 503.917969 253.585938 503.566406 253.324219 502.867188 L 246.898438 485.679688 L 200.539062 549.125 C 200.273438 549.488281 199.863281 549.679688 199.445312 549.679688 "/>
<path style=" stroke:none;fill-rule:nonzero;fill:rgb(97.648621%,78.819275%,19.999695%);fill-opacity:1;" d="M 201.410156 551.878906 L 167.328125 563.691406 L 171.371094 578.054688 L 210.46875 566.089844 L 201.410156 551.878906 "/>
<path style=" stroke:none;fill-rule:nonzero;fill:rgb(0%,0%,0%);fill-opacity:1;" d="M 168.972656 564.550781 L 172.296875 576.359375 L 208.375 565.320312 L 200.84375 553.5 Z M 171.371094 579.402344 C 171.148438 579.402344 170.921875 579.351562 170.722656 579.242188 C 170.40625 579.066406 170.167969 578.769531 170.070312 578.417969 L 166.027344 564.058594 C 165.835938 563.371094 166.210938 562.648438 166.886719 562.417969 L 200.964844 550.601562 C 201.558594 550.394531 202.214844 550.625 202.546875 551.152344 L 211.605469 565.363281 C 211.832031 565.71875 211.882812 566.160156 211.734375 566.558594 C 211.589844 566.953125 211.265625 567.257812 210.863281 567.382812 L 171.765625 579.34375 C 171.636719 579.386719 171.503906 579.402344 171.371094 579.402344 "/>
<path style=" stroke:none;fill-rule:nonzero;fill:rgb(97.648621%,78.819275%,19.999695%);fill-opacity:1;" d="M 181.417969 568.59375 L 179.820312 566.527344 C 178.867188 565.175781 177.109375 564.652344 175.570312 565.265625 L 173.074219 566.261719 L 171.710938 563.4375 C 171.371094 562.210938 170.167969 561.429688 168.910156 561.628906 C 161.226562 562.84375 135.671875 567.132812 126.589844 571.769531 C 115.847656 577.253906 120.003906 594.132812 136.949219 595.308594 C 150.375 596.242188 170.894531 584.527344 178.832031 579.628906 C 180.394531 578.664062 180.417969 576.410156 178.882812 575.402344 L 178.867188 575.394531 L 181.054688 573.152344 C 182.257812 571.921875 182.410156 570.003906 181.417969 568.59375 "/>
<path style=" stroke:none;fill-rule:nonzero;fill:rgb(0%,0%,0%);fill-opacity:1;" d="M 169.300781 562.949219 C 169.242188 562.949219 169.179688 562.953125 169.117188 562.960938 C 161.539062 564.160156 136.109375 568.429688 127.203125 572.972656 C 123.261719 574.980469 121.359375 578.898438 122.238281 583.199219 C 123.167969 587.753906 127.605469 593.308594 137.042969 593.964844 C 150.023438 594.839844 170.097656 583.433594 178.125 578.476562 C 178.605469 578.175781 178.664062 577.707031 178.667969 577.515625 C 178.667969 577.328125 178.625 576.847656 178.140625 576.535156 C 177.804688 576.316406 177.574219 575.949219 177.53125 575.546875 C 177.488281 575.144531 177.617188 574.742188 177.898438 574.449219 L 180.085938 572.210938 C 180.828125 571.449219 180.925781 570.273438 180.328125 569.398438 L 178.75 567.347656 C 178.121094 566.457031 177.035156 566.140625 176.074219 566.519531 L 173.578125 567.515625 C 172.917969 567.777344 172.167969 567.488281 171.859375 566.851562 L 170.492188 564.027344 C 170.457031 563.953125 170.425781 563.875 170.40625 563.800781 C 170.265625 563.289062 169.808594 562.949219 169.300781 562.949219 Z M 138.484375 596.710938 C 137.933594 596.710938 137.390625 596.695312 136.855469 596.660156 C 125.90625 595.898438 120.710938 589.222656 119.589844 583.738281 C 118.476562 578.285156 120.984375 573.113281 125.976562 570.566406 C 135.234375 565.84375 161.015625 561.511719 168.699219 560.292969 C 170.589844 559.992188 172.40625 561.128906 172.972656 562.953125 L 173.742188 564.542969 L 175.070312 564.011719 C 177.199219 563.164062 179.605469 563.875 180.925781 565.746094 L 182.488281 567.773438 C 182.496094 567.785156 182.511719 567.800781 182.519531 567.820312 C 183.886719 569.761719 183.675781 572.398438 182.023438 574.097656 L 180.75 575.398438 C 181.15625 576.027344 181.378906 576.773438 181.371094 577.554688 C 181.351562 578.875 180.671875 580.078125 179.542969 580.777344 C 171.617188 585.671875 152.203125 596.710938 138.484375 596.710938 "/>
<path style=" stroke:none;fill-rule:nonzero;fill:rgb(0%,0%,0%);fill-opacity:1;" d="M 157.800781 583.695312 C 157.214844 583.695312 156.671875 583.308594 156.503906 582.714844 L 152.996094 570.464844 C 152.792969 569.746094 153.207031 569 153.925781 568.796875 C 154.640625 568.589844 155.390625 569.003906 155.597656 569.722656 L 159.101562 581.972656 C 159.308594 582.691406 158.890625 583.441406 158.171875 583.644531 C 158.046875 583.675781 157.921875 583.695312 157.800781 583.695312 "/>
<path style=" stroke:none;fill-rule:nonzero;fill:rgb(0%,0%,0%);fill-opacity:1;" d="M 138.351562 591.789062 C 138.15625 591.789062 137.960938 591.746094 137.773438 591.660156 C 126.277344 586.214844 127.167969 580.3125 127.761719 576.410156 L 127.804688 576.109375 C 127.914062 575.375 128.609375 574.859375 129.339844 574.972656 C 130.078125 575.082031 130.585938 575.769531 130.476562 576.507812 L 130.433594 576.8125 C 129.90625 580.296875 129.25 584.632812 138.929688 589.21875 C 139.605469 589.535156 139.890625 590.339844 139.570312 591.015625 C 139.34375 591.5 138.855469 591.789062 138.351562 591.789062 "/>
<path style=" stroke:none;fill-rule:nonzero;fill:rgb(0%,0%,0%);fill-opacity:1;" d="M 191.457031 591.945312 C 190.921875 591.945312 190.414062 591.921875 189.933594 591.902344 L 189.632812 591.890625 C 188.882812 591.863281 188.304688 591.230469 188.332031 590.488281 C 188.363281 589.746094 188.996094 589.152344 189.734375 589.195312 L 190.042969 589.207031 C 193.566406 589.347656 197.953125 589.53125 201.460938 579.414062 C 201.707031 578.707031 202.476562 578.335938 203.179688 578.582031 C 203.886719 578.828125 204.257812 579.597656 204.015625 580.296875 C 200.355469 590.847656 195.308594 591.945312 191.457031 591.945312 "/>
<path style=" stroke:none;fill-rule:nonzero;fill:rgb(0%,0%,0%);fill-opacity:1;" d="M 145.996094 553.492188 C 145.871094 553.492188 145.746094 553.472656 145.617188 553.441406 C 144.902344 553.226562 144.492188 552.480469 144.699219 551.765625 L 147.167969 543.3125 C 144.109375 540.761719 130.777344 529.789062 110.210938 514.675781 C 86.785156 497.453125 81.644531 493.921875 81.59375 493.890625 C 80.976562 493.46875 80.820312 492.625 81.242188 492.007812 C 81.660156 491.394531 82.503906 491.238281 83.117188 491.65625 C 83.167969 491.691406 88.3125 495.222656 111.8125 512.496094 C 135.332031 529.785156 149.445312 541.6875 149.585938 541.808594 C 149.992188 542.152344 150.160156 542.707031 150.007812 543.21875 L 147.292969 552.519531 C 147.121094 553.109375 146.582031 553.492188 145.996094 553.492188 "/>
<path style=" stroke:none;fill-rule:nonzero;fill:rgb(0%,0%,0%);fill-opacity:1;" d="M 269.5 464.460938 C 267.730469 456.539062 256.429688 427.339844 247.90625 405.824219 C 241.105469 388.652344 224.660156 376.277344 205.085938 373.789062 C 190.519531 371.933594 174.722656 371.5625 159.53125 372.757812 C 134.207031 374.75 112.453125 390.242188 104.078125 412.457031 C 96.53125 432.457031 88.308594 457.019531 88.121094 469.460938 C 87.925781 482.714844 95.9375 495.378906 104.679688 505.214844 C 115.710938 517.621094 131.445312 525.355469 148.4375 526.929688 C 172.714844 529.175781 210.597656 531.425781 227.804688 525.808594 C 254.195312 517.195312 273.785156 483.625 269.5 464.460938 "/>
<path style=" stroke:none;fill-rule:nonzero;fill:rgb(97.648621%,78.819275%,19.999695%);fill-opacity:1;" d="M 234.132812 425.574219 L 119.425781 425.574219 C 114.222656 425.574219 110 429.789062 110 434.992188 L 110 510.792969 C 110 515.996094 114.222656 520.210938 119.425781 520.210938 L 234.132812 520.210938 C 239.339844 520.210938 243.558594 515.996094 243.558594 510.792969 L 243.558594 434.992188 C 243.558594 429.789062 239.339844 425.574219 234.132812 425.574219 "/>
<path style=" stroke:none;fill-rule:nonzero;fill:rgb(0%,0%,0%);fill-opacity:1;" d="M 119.425781 426.921875 C 114.972656 426.921875 111.351562 430.542969 111.351562 434.992188 L 111.351562 510.792969 C 111.351562 515.242188 114.972656 518.863281 119.425781 518.863281 L 234.132812 518.863281 C 238.585938 518.863281 242.207031 515.242188 242.207031 510.792969 L 242.207031 434.992188 C 242.207031 430.542969 238.585938 426.921875 234.132812 426.921875 Z M 234.132812 521.5625 L 119.425781 521.5625 C 113.484375 521.5625 108.648438 516.730469 108.648438 510.792969 L 108.648438 434.992188 C 108.648438 429.054688 113.484375 424.222656 119.425781 424.222656 L 234.132812 424.222656 C 240.074219 424.222656 244.910156 429.054688 244.910156 434.992188 L 244.910156 510.792969 C 244.910156 516.730469 240.074219 521.5625 234.132812 521.5625 "/>
<path style=" stroke:none;fill-rule:nonzero;fill:rgb(100%,100%,100%);fill-opacity:1;" d="M 184.59375 472.890625 C 184.59375 477.203125 181.09375 480.703125 176.78125 480.703125 C 172.464844 480.703125 168.964844 477.203125 168.964844 472.890625 C 168.964844 468.578125 172.464844 465.082031 176.78125 465.082031 C 181.09375 465.082031 184.59375 468.578125 184.59375 472.890625 "/>
<path style=" stroke:none;fill-rule:nonzero;fill:rgb(100%,100%,100%);fill-opacity:1;" d="M 242.933594 520.820312 L 111.074219 520.820312 C 107.796875 520.820312 105.140625 523.472656 105.140625 526.75 C 105.140625 530.023438 107.796875 532.679688 111.074219 532.679688 L 242.933594 532.679688 C 246.210938 532.679688 248.867188 530.023438 248.867188 526.75 C 248.867188 523.472656 246.210938 520.820312 242.933594 520.820312 "/>
<path style=" stroke:none;fill-rule:nonzero;fill:rgb(0%,0%,0%);fill-opacity:1;" d="M 111.074219 522.167969 C 108.546875 522.167969 106.492188 524.222656 106.492188 526.75 C 106.492188 529.273438 108.546875 531.332031 111.074219 531.332031 L 242.933594 531.332031 C 245.460938 531.332031 247.519531 529.273438 247.519531 526.75 C 247.519531 524.222656 245.460938 522.167969 242.933594 522.167969 Z M 242.933594 534.03125 L 111.074219 534.03125 C 107.054688 534.03125 103.789062 530.761719 103.789062 526.75 C 103.789062 522.734375 107.054688 519.46875 111.074219 519.46875 L 242.933594 519.46875 C 246.949219 519.46875 250.21875 522.734375 250.21875 526.75 C 250.21875 530.761719 246.949219 534.03125 242.933594 534.03125 "/>
<path style=" stroke:none;fill-rule:nonzero;fill:rgb(97.648621%,78.819275%,19.999695%);fill-opacity:1;" d="M 188.128906 373.332031 L 189.363281 355.835938 C 190.199219 355.777344 190.777344 355.738281 190.945312 355.738281 C 195.832031 355.683594 197.417969 354.101562 197.839844 350.089844 C 198.101562 347.585938 198.195312 343.859375 196.972656 339.195312 C 196.839844 338.699219 196.871094 338.167969 197.070312 337.695312 L 197.90625 335.742188 C 198.078125 335.101562 197.859375 334.410156 197.34375 333.992188 L 196.898438 333.625 C 195.304688 332.320312 193.980469 330.710938 192.917969 328.929688 C 191.941406 327.292969 190.28125 324.222656 189.140625 323.675781 C 185.929688 322.144531 172.910156 315.335938 165.628906 327.230469 C 159.953125 336.507812 169.226562 349.277344 172.597656 353.460938 C 173.414062 354.472656 167.09375 374.300781 167.09375 374.300781 L 158.929688 376.273438 C 158.929688 376.273438 165.230469 387.457031 184.371094 382.832031 C 198.003906 379.539062 195.835938 374.472656 195.835938 374.472656 L 188.128906 373.332031 "/>
<path style=" stroke:none;fill-rule:nonzero;fill:rgb(0%,0%,0%);fill-opacity:1;" d="M 161.246094 377.101562 C 163.6875 379.792969 170.332031 384.835938 184.054688 381.519531 C 191.625 379.691406 193.761719 377.417969 194.355469 376.226562 C 194.464844 376.011719 194.53125 375.816406 194.566406 375.648438 L 187.929688 374.671875 C 187.230469 374.566406 186.730469 373.945312 186.777344 373.238281 L 188.015625 355.738281 C 188.0625 355.066406 188.597656 354.535156 189.265625 354.488281 C 190.148438 354.425781 190.753906 354.386719 190.933594 354.386719 C 195.265625 354.339844 196.15625 353.183594 196.496094 349.949219 C 196.859375 346.46875 196.589844 343.0625 195.664062 339.539062 C 195.457031 338.746094 195.515625 337.90625 195.828125 337.167969 L 196.613281 335.335938 C 196.621094 335.21875 196.574219 335.105469 196.488281 335.03125 L 196.042969 334.667969 C 194.386719 333.3125 192.945312 331.613281 191.757812 329.621094 L 191.308594 328.863281 C 190.679688 327.777344 189.199219 325.242188 188.554688 324.890625 L 188.207031 324.722656 C 184.492188 322.933594 173.183594 317.472656 166.78125 327.9375 C 161.714844 336.21875 169.898438 347.953125 173.652344 352.613281 C 174.15625 353.242188 174.921875 354.191406 168.382812 374.707031 C 168.242188 375.160156 167.871094 375.5 167.414062 375.613281 Z M 175.550781 385.316406 C 162.652344 385.316406 157.980469 377.34375 157.75 376.933594 C 157.542969 376.566406 157.519531 376.121094 157.691406 375.734375 C 157.859375 375.34375 158.199219 375.058594 158.613281 374.960938 L 166.039062 373.167969 C 168.640625 364.945312 171.199219 355.960938 171.316406 354.023438 C 167.113281 348.738281 158.621094 336.097656 164.476562 326.527344 C 169.570312 318.195312 177.949219 316.773438 189.378906 322.292969 L 189.722656 322.457031 C 190.980469 323.054688 192.191406 325.011719 193.644531 327.5 L 194.078125 328.242188 C 195.105469 329.960938 196.34375 331.425781 197.753906 332.578125 L 198.203125 332.945312 C 199.125 333.703125 199.523438 334.941406 199.210938 336.09375 C 199.195312 336.15625 199.175781 336.210938 199.148438 336.273438 L 198.316406 338.226562 C 198.234375 338.414062 198.222656 338.640625 198.277344 338.859375 C 199.289062 342.699219 199.582031 346.421875 199.183594 350.234375 C 198.671875 355.101562 196.367188 357.027344 190.960938 357.089844 C 190.902344 357.089844 190.789062 357.09375 190.625 357.105469 L 189.5625 372.179688 L 196.035156 373.132812 C 196.5 373.199219 196.894531 373.507812 197.082031 373.941406 C 197.148438 374.101562 197.71875 375.550781 196.773438 377.4375 C 195.335938 380.296875 191.273438 382.554688 184.691406 384.144531 C 181.265625 384.972656 178.230469 385.316406 175.550781 385.316406 "/>
<path style=" stroke:none;fill-rule:nonzero;fill:rgb(0%,0%,0%);fill-opacity:1;" d="M 169.644531 312.105469 C 173.171875 311.34375 177.230469 311.890625 178.941406 311.257812 C 181.703125 310.242188 181.78125 306.9375 185.601562 306.003906 C 190.230469 304.878906 192.15625 306.855469 193.96875 309.609375 C 194.269531 310.066406 194.535156 310.582031 194.75 311.160156 C 197.660156 318.957031 193.988281 322.757812 192.351562 323.996094 C 192.351562 323.996094 181.945312 329.367188 180.164062 330.90625 C 178.496094 332.34375 176.574219 335.742188 177.78125 340.628906 C 177.9375 341.261719 177.664062 341.917969 177.128906 342.238281 C 176.503906 342.617188 175.691406 342.4375 175.265625 341.816406 C 173.910156 339.851562 170.953125 336.0625 168.851562 336.957031 C 166.207031 338.089844 167.03125 346.003906 172.863281 346.917969 C 174.652344 347.199219 176.109375 349.03125 175.929688 350.902344 C 175.816406 352.125 174.664062 353.609375 172.945312 354.003906 C 171.902344 354.242188 170.871094 353.820312 169.949219 353.230469 C 166.144531 350.804688 155.410156 340.507812 154.078125 331.277344 C 152.46875 320.160156 164.945312 313.117188 169.644531 312.105469 "/>
<path style=" stroke:none;fill-rule:nonzero;fill:rgb(0%,0%,0%);fill-opacity:1;" d="M 190.675781 356.914062 C 190.660156 356.914062 190.644531 356.914062 190.628906 356.910156 C 190.445312 356.90625 186.101562 356.714844 182.960938 354.054688 C 182.433594 353.605469 182.367188 352.8125 182.816406 352.285156 C 183.265625 351.753906 184.054688 351.691406 184.585938 352.136719 C 187.050781 354.226562 190.6875 354.402344 190.726562 354.402344 C 191.417969 354.433594 191.957031 355.011719 191.929688 355.707031 C 191.902344 356.382812 191.347656 356.914062 190.675781 356.914062 "/>
<path style=" stroke:none;fill-rule:nonzero;fill:rgb(97.648621%,78.819275%,19.999695%);fill-opacity:1;" d="M 635.613281 725 C 635.613281 725 606.355469 591.011719 691.398438 481.757812 C 694.003906 478.414062 707.429688 488.0625 710.082031 484.691406 C 713.460938 480.382812 705.957031 462.96875 709.6875 458.832031 C 723.558594 443.445312 739.902344 429.316406 759.164062 417.152344 C 759.164062 417.152344 770.445312 460.65625 762.675781 519.363281 C 762.085938 523.792969 742.269531 529.515625 741.457031 534.105469 C 740.679688 538.441406 758.925781 541.628906 757.929688 546.082031 C 745.019531 603.726562 712.15625 670.746094 635.613281 725 "/>
<path style=" stroke:none;fill-rule:nonzero;fill:rgb(97.648621%,78.819275%,19.999695%);fill-opacity:1;" d="M 617.53125 549.675781 C 615.578125 545.789062 627.996094 523.058594 625.976562 519.34375 C 586.402344 446.464844 536.15625 406.5625 536.15625 406.5625 C 524.210938 437.851562 518.113281 468.886719 516.4375 499.101562 C 516.164062 503.925781 536.074219 516.09375 536.019531 520.875 C 535.96875 526.121094 516.996094 528.84375 517.1875 534.035156 C 520.058594 610.632812 549.988281 678.707031 580.539062 731.359375 C 581.1875 731.277344 581.824219 731.175781 582.464844 731.082031 C 613.9375 724.617188 642.078125 726.8125 668.148438 717.492188 C 669.578125 716.976562 671.003906 716.453125 672.425781 715.925781 C 673.179688 652.65625 659.929688 592.410156 639.375 547.90625 C 637.476562 543.792969 619.515625 553.613281 617.53125 549.675781 "/>
<path style=" stroke:none;fill-rule:nonzero;fill:rgb(100%,100%,100%);fill-opacity:1;" d="M 536.742188 408.808594 C 525.882812 437.796875 519.503906 468.1875 517.777344 499.183594 C 517.679688 500.957031 523.40625 505.878906 527.199219 509.136719 C 533.523438 514.570312 537.398438 518.046875 537.371094 520.890625 C 537.332031 524.398438 532.347656 526.492188 527.066406 528.710938 C 523.4375 530.230469 518.46875 532.320312 518.535156 533.984375 C 520.894531 596.929688 541.410156 661.019531 581.246094 729.894531 C 581.308594 729.886719 581.367188 729.878906 581.421875 729.871094 L 582.277344 729.75 C 595.355469 727.0625 607.867188 725.867188 619.96875 724.71875 C 636.761719 723.121094 652.621094 721.609375 667.691406 716.226562 C 668.816406 715.8125 669.945312 715.398438 671.078125 714.980469 C 671.652344 655.722656 659.664062 595.085938 638.144531 548.476562 C 637.671875 547.457031 631.179688 549.347656 628.738281 550.0625 C 622.875 551.769531 617.804688 553.246094 616.320312 550.289062 C 615.128906 547.925781 617.140625 542.539062 620.515625 533.953125 C 622.484375 528.953125 625.449219 521.398438 624.777344 519.988281 C 589.515625 455.042969 545.226562 415.957031 536.742188 408.808594 Z M 579.824219 732.820312 L 579.367188 732.042969 C 539 662.476562 518.222656 597.722656 515.835938 534.085938 C 515.703125 530.550781 520.710938 528.449219 526.019531 526.21875 C 529.660156 524.691406 534.652344 522.59375 534.667969 520.863281 C 534.683594 519.132812 529.117188 514.347656 525.4375 511.183594 C 518.882812 505.558594 514.914062 501.925781 515.082031 499.03125 C 516.855469 467.128906 523.515625 435.859375 534.886719 406.082031 L 535.542969 404.363281 L 536.992188 405.507812 C 537.492188 405.910156 587.90625 446.417969 627.160156 518.703125 C 628.402344 520.992188 626.402344 526.363281 623.03125 534.9375 C 621.164062 539.691406 618.035156 547.652344 618.734375 549.074219 C 618.738281 549.078125 619.125 549.472656 621.257812 549.160156 C 623.136719 548.875 625.597656 548.160156 627.980469 547.46875 C 633.96875 545.722656 639.152344 544.214844 640.59375 547.339844 C 662.398438 594.550781 674.488281 656.003906 673.769531 715.941406 L 673.757812 716.871094 L 672.882812 717.191406 C 671.460938 717.71875 670.039062 718.242188 668.609375 718.765625 C 653.214844 724.269531 637.191406 725.792969 620.21875 727.40625 C 608.195312 728.550781 595.753906 729.734375 582.738281 732.410156 L 581.820312 732.542969 C 581.453125 732.597656 581.089844 732.65625 580.71875 732.703125 L 579.824219 732.820312 "/>
<path style=" stroke:none;fill-rule:nonzero;fill:rgb(100%,100%,100%);fill-opacity:1;" d="M 624.675781 694.355469 C 624.140625 694.355469 623.636719 694.039062 623.421875 693.519531 C 613.671875 670 604.4375 645.910156 595.949219 621.917969 C 595.703125 621.21875 596.070312 620.445312 596.773438 620.195312 C 597.476562 619.945312 598.25 620.320312 598.5 621.019531 C 606.964844 644.964844 616.1875 669.011719 625.917969 692.488281 C 626.207031 693.179688 625.875 693.964844 625.1875 694.253906 C 625.023438 694.324219 624.84375 694.355469 624.675781 694.355469 "/>
<path style=" stroke:none;fill-rule:nonzero;fill:rgb(100%,100%,100%);fill-opacity:1;" d="M 585.550781 588.429688 C 584.984375 588.429688 584.449219 588.066406 584.265625 587.492188 C 570.980469 546.691406 559.394531 504.800781 549.820312 463.003906 L 545.4375 443.882812 C 545.265625 443.15625 545.722656 442.433594 546.449219 442.265625 C 547.183594 442.097656 547.90625 442.554688 548.070312 443.28125 L 552.453125 462.402344 C 562.007812 504.125 573.582031 545.929688 586.835938 586.660156 C 587.066406 587.371094 586.679688 588.132812 585.96875 588.359375 C 585.828125 588.40625 585.691406 588.429688 585.550781 588.429688 "/>
<path style=" stroke:none;fill-rule:nonzero;fill:rgb(97.648621%,78.819275%,19.999695%);fill-opacity:1;" d="M 664.390625 720.742188 C 664.390625 720.742188 646.867188 585.492188 783.382812 545.664062 C 783.382812 545.664062 787.3125 663.15625 664.390625 720.742188 "/>
<path style=" stroke:none;fill-rule:nonzero;fill:rgb(100%,100%,100%);fill-opacity:1;" d="M 681.679688 684.042969 C 681.472656 684.042969 681.257812 683.996094 681.0625 683.890625 C 680.398438 683.546875 680.140625 682.730469 680.488281 682.066406 C 701.699219 641.484375 758.3125 581.640625 758.882812 581.046875 C 759.394531 580.503906 760.253906 580.480469 760.789062 580.992188 C 761.328125 581.507812 761.355469 582.359375 760.839844 582.90625 C 760.273438 583.5 703.917969 643.070312 682.882812 683.316406 C 682.636719 683.78125 682.167969 684.042969 681.679688 684.042969 "/>
<path style=" stroke:none;fill-rule:nonzero;fill:rgb(0%,0%,0%);fill-opacity:1;" d="M 540.457031 607.074219 C 527.019531 589.996094 510.105469 601.011719 502.863281 599.753906 C 486.644531 596.925781 489.222656 588.597656 481.839844 581.753906 C 476.316406 576.628906 458.488281 567.90625 436.507812 591.132812 C 436.507812 591.132812 427.359375 606.757812 413.988281 602.941406 C 407.296875 601.035156 398.519531 603.050781 391.335938 607.53125 C 378.652344 615.097656 367.835938 636.507812 370.070312 642.097656 C 371.285156 645.125 376.972656 645.765625 381.90625 645.785156 C 390.132812 652.132812 399.066406 654.324219 406.28125 653.632812 C 408.179688 655 409.707031 656.917969 410.601562 659.242188 C 415.671875 672.457031 431.339844 697.222656 472.164062 665.152344 C 475.246094 662.730469 479.199219 661.976562 482.878906 663.046875 C 487.40625 664.363281 493.039062 670.960938 513.195312 665.328125 C 526.144531 661.707031 528.328125 646.773438 530.90625 639.785156 C 532.957031 634.21875 536.640625 631.5 538.796875 630.328125 C 541.265625 628.992188 543.3125 626.941406 544.421875 624.347656 C 546.0625 620.503906 546.40625 614.636719 540.457031 607.074219 "/>
<path style=" stroke:none;fill-rule:nonzero;fill:rgb(97.648621%,78.819275%,19.999695%);fill-opacity:1;" d="M 395.605469 634.316406 C 400.390625 636.214844 400.507812 645.261719 401.785156 645.011719 C 402.773438 644.816406 401.554688 638.894531 404.128906 637.554688 C 405.335938 636.929688 407.09375 636.746094 408.578125 638.363281 C 410.277344 640.214844 411.066406 644.355469 409.246094 647.949219 C 414.722656 652.0625 420.277344 656.1875 425.910156 660.3125 C 432.597656 665.214844 439.246094 670.011719 445.851562 674.710938 L 420.03125 683.195312 L 404.878906 663.675781 C 403.332031 665.628906 401.429688 667.433594 399.132812 668.597656 C 399.132812 668.597656 393.460938 668.199219 388.148438 660.734375 L 386.914062 661.242188 C 386.039062 661.597656 385.074219 660.972656 385.046875 660.027344 L 384.949219 656.855469 C 384.910156 655.660156 384.65625 654.484375 384.207031 653.375 C 383.445312 651.511719 382.734375 649.417969 382.101562 647.070312 C 381.292969 644.078125 382.261719 640.875 384.609375 638.847656 C 390.453125 633.8125 393.703125 633.558594 395.605469 634.316406 "/>
<path style=" stroke:none;fill-rule:nonzero;fill:rgb(0%,0%,0%);fill-opacity:1;" d="M 404.878906 662.328125 C 404.882812 662.328125 404.882812 662.328125 404.886719 662.328125 C 405.300781 662.328125 405.691406 662.523438 405.945312 662.851562 L 420.511719 681.613281 L 442.894531 674.261719 C 436.96875 670.035156 431 665.714844 425.113281 661.402344 C 419.554688 657.332031 413.949219 653.164062 408.4375 649.027344 C 407.910156 648.632812 407.746094 647.925781 408.039062 647.339844 C 409.648438 644.160156 408.808594 640.613281 407.582031 639.277344 C 406.558594 638.160156 405.480469 638.375 404.753906 638.753906 C 403.847656 639.21875 403.71875 641.527344 403.636719 642.90625 C 403.542969 644.523438 403.453125 646.054688 402.050781 646.335938 C 400.359375 646.667969 399.863281 644.875 399.285156 642.796875 C 398.59375 640.308594 397.550781 636.539062 395.109375 635.570312 C 393.039062 634.75 389.710938 636.238281 385.492188 639.871094 C 383.554688 641.539062 382.730469 644.230469 383.40625 646.71875 C 383.996094 648.902344 384.6875 650.972656 385.460938 652.863281 C 385.976562 654.132812 386.257812 655.460938 386.296875 656.816406 L 386.394531 659.980469 L 387.640625 659.484375 C 388.21875 659.246094 388.890625 659.4375 389.253906 659.949219 C 393.402344 665.789062 397.652344 666.972656 398.890625 667.203125 C 400.628906 666.242188 402.289062 664.777344 403.820312 662.839844 C 404.078125 662.515625 404.464844 662.328125 404.878906 662.328125 Z M 420.03125 684.542969 C 419.621094 684.542969 419.226562 684.359375 418.964844 684.023438 L 404.828125 665.820312 C 403.25 667.558594 401.542969 668.894531 399.746094 669.804688 C 399.527344 669.914062 399.28125 669.964844 399.039062 669.949219 C 398.792969 669.925781 393.117188 669.449219 387.6875 662.378906 L 387.425781 662.488281 C 386.609375 662.824219 385.671875 662.734375 384.925781 662.253906 C 384.183594 661.773438 383.722656 660.953125 383.691406 660.066406 L 383.597656 656.898438 C 383.566406 655.867188 383.347656 654.855469 382.957031 653.886719 C 382.144531 651.890625 381.414062 649.71875 380.800781 647.425781 C 379.855469 643.941406 381.007812 640.171875 383.730469 637.828125 C 388.902344 633.367188 392.953125 631.808594 396.105469 633.0625 C 398.972656 634.199219 400.375 637.191406 401.246094 639.886719 C 401.539062 638.433594 402.148438 637.0625 403.503906 636.355469 C 405.160156 635.492188 407.625 635.332031 409.574219 637.453125 C 411.460938 639.507812 412.371094 643.679688 410.914062 647.511719 C 416.144531 651.433594 421.449219 655.367188 426.710938 659.226562 C 433.304688 664.058594 440.011719 668.902344 446.632812 673.609375 C 447.050781 673.902344 447.261719 674.410156 447.1875 674.914062 C 447.109375 675.417969 446.757812 675.832031 446.273438 675.992188 L 420.453125 684.480469 C 420.3125 684.523438 420.175781 684.542969 420.03125 684.542969 "/>
<path style=" stroke:none;fill-rule:nonzero;fill:rgb(97.648621%,78.819275%,19.999695%);fill-opacity:1;" d="M 407.574219 652.886719 C 407.574219 652.886719 408.824219 658.324219 404.878906 663.675781 L 407.574219 652.886719 "/>
<path style=" stroke:none;fill-rule:nonzero;fill:rgb(0%,0%,0%);fill-opacity:1;" d="M 404.878906 665.027344 C 404.601562 665.027344 404.320312 664.941406 404.078125 664.765625 C 403.476562 664.320312 403.351562 663.480469 403.792969 662.878906 C 407.328125 658.078125 406.269531 653.238281 406.257812 653.191406 C 406.089844 652.464844 406.542969 651.742188 407.273438 651.574219 C 408 651.410156 408.722656 651.859375 408.890625 652.585938 C 408.945312 652.835938 410.230469 658.691406 405.96875 664.476562 C 405.703125 664.835938 405.292969 665.027344 404.878906 665.027344 "/>
<path style=" stroke:none;fill-rule:nonzero;fill:rgb(97.648621%,78.819275%,19.999695%);fill-opacity:1;" d="M 664.671875 714.613281 L 738.007812 734.511719 L 743.261719 744.703125 L 665.476562 743.613281 L 664.671875 714.613281 "/>
<path style=" stroke:none;fill-rule:nonzero;fill:rgb(0%,0%,0%);fill-opacity:1;" d="M 666.785156 742.285156 L 741.023438 743.324219 L 737.078125 735.65625 L 666.074219 716.394531 Z M 743.253906 746.054688 C 743.246094 746.054688 743.242188 746.054688 743.234375 746.054688 L 665.453125 744.964844 C 664.726562 744.953125 664.140625 744.378906 664.121094 743.65625 L 663.320312 714.652344 C 663.304688 714.226562 663.496094 713.816406 663.835938 713.550781 C 664.171875 713.285156 664.613281 713.199219 665.023438 713.308594 L 738.363281 733.210938 C 738.726562 733.308594 739.035156 733.558594 739.210938 733.890625 L 744.457031 744.085938 C 744.675781 744.507812 744.652344 745.011719 744.402344 745.414062 C 744.15625 745.8125 743.722656 746.054688 743.253906 746.054688 "/>
<path style=" stroke:none;fill-rule:nonzero;fill:rgb(97.648621%,78.819275%,19.999695%);fill-opacity:1;" d="M 720.910156 725.007812 C 721.355469 721.351562 722.691406 715.914062 726.542969 710.714844 C 728.355469 708.269531 731.773438 707.648438 734.371094 709.246094 L 779.144531 736.6875 C 783.535156 739.777344 780.632812 745.941406 776.542969 745.941406 L 723.507812 745.941406 L 728.953125 734.886719 L 723.929688 731.535156 C 721.777344 730.101562 720.59375 727.578125 720.910156 725.007812 "/>
<path style=" stroke:none;fill-rule:nonzero;fill:rgb(0%,0%,0%);fill-opacity:1;" d="M 725.675781 744.589844 L 776.539062 744.589844 C 777.925781 744.589844 779.300781 743.449219 779.796875 741.875 C 780.035156 741.121094 780.378906 739.207031 778.363281 737.789062 L 733.664062 710.390625 C 731.660156 709.167969 729.011719 709.65625 727.628906 711.515625 C 723.949219 716.484375 722.671875 721.6875 722.25 725.171875 C 722 727.238281 722.929688 729.246094 724.675781 730.410156 L 729.703125 733.757812 C 730.269531 734.136719 730.46875 734.871094 730.167969 735.476562 Z M 776.539062 747.289062 L 723.503906 747.289062 C 723.039062 747.289062 722.609375 747.050781 722.359375 746.65625 C 722.113281 746.261719 722.085938 745.761719 722.292969 745.347656 L 727.21875 735.351562 L 723.183594 732.660156 C 720.578125 730.921875 719.191406 727.929688 719.566406 724.851562 C 720.027344 721.035156 721.429688 715.351562 725.457031 709.910156 C 727.664062 706.9375 731.886719 706.136719 735.074219 708.09375 L 779.851562 735.535156 C 782.292969 737.253906 783.234375 739.976562 782.375 742.695312 C 781.519531 745.402344 779.117188 747.289062 776.539062 747.289062 "/>
<path style=" stroke:none;fill-rule:nonzero;fill:rgb(0%,0%,0%);fill-opacity:1;" d="M 774.152344 742.613281 C 773.925781 742.613281 773.699219 742.554688 773.484375 742.4375 L 729.53125 717.5 C 728.878906 717.128906 728.648438 716.308594 729.019531 715.660156 C 729.390625 715.011719 730.214844 714.785156 730.859375 715.152344 L 774.824219 740.085938 C 775.464844 740.453125 775.695312 741.28125 775.328125 741.929688 C 775.078125 742.367188 774.617188 742.613281 774.152344 742.613281 "/>
<path style=" stroke:none;fill-rule:nonzero;fill:rgb(97.648621%,78.819275%,19.999695%);fill-opacity:1;" d="M 645.292969 664.664062 L 713.503906 628.339844 L 724.269531 634.175781 L 666.203125 685.847656 L 645.292969 664.664062 "/>
<path style=" stroke:none;fill-rule:nonzero;fill:rgb(0%,0%,0%);fill-opacity:1;" d="M 647.53125 665.003906 L 666.269531 683.984375 L 721.941406 634.441406 L 713.503906 629.875 Z M 666.210938 687.195312 C 665.863281 687.195312 665.507812 687.058594 665.25 686.796875 L 644.339844 665.613281 C 644.03125 665.308594 643.894531 664.878906 643.964844 664.460938 C 644.023438 664.039062 644.28125 663.671875 644.664062 663.46875 L 712.875 627.148438 C 713.277344 626.9375 713.753906 626.9375 714.15625 627.152344 L 724.921875 632.988281 C 725.300781 633.195312 725.566406 633.582031 725.617188 634.019531 C 725.667969 634.457031 725.5 634.886719 725.175781 635.183594 L 667.105469 686.851562 C 666.851562 687.082031 666.527344 687.195312 666.210938 687.195312 "/>
<path style=" stroke:none;fill-rule:nonzero;fill:rgb(97.648621%,78.819275%,19.999695%);fill-opacity:1;" d="M 706.644531 629.472656 C 705.234375 626.0625 703.734375 620.667969 704.539062 614.25 C 704.914062 611.230469 707.589844 609.015625 710.636719 609.128906 L 763.117188 611.097656 C 767.1875 611.566406 768.277344 616.964844 764.707031 618.96875 L 718.496094 644.96875 L 718.5 634.128906 L 712.472656 633.675781 C 709.894531 633.480469 707.632812 631.863281 706.644531 629.472656 "/>
<path style=" stroke:none;fill-rule:nonzero;fill:rgb(0%,0%,0%);fill-opacity:1;" d="M 707.894531 628.957031 C 708.6875 630.875 710.480469 632.171875 712.578125 632.328125 L 718.601562 632.785156 C 719.308594 632.835938 719.851562 633.425781 719.851562 634.128906 L 719.847656 642.660156 L 764.050781 617.792969 C 765.390625 617.039062 765.65625 615.710938 765.457031 614.722656 C 765.261719 613.746094 764.511719 612.640625 763.015625 612.449219 L 710.589844 610.480469 C 708.242188 610.371094 706.171875 612.121094 705.878906 614.417969 C 705.109375 620.550781 706.550781 625.707031 707.894531 628.957031 Z M 718.496094 646.320312 C 718.261719 646.320312 718.027344 646.257812 717.816406 646.132812 C 717.402344 645.890625 717.144531 645.445312 717.144531 644.96875 L 717.152344 635.382812 L 712.378906 635.023438 C 709.257812 634.785156 706.582031 632.859375 705.394531 629.984375 C 703.929688 626.4375 702.359375 620.792969 703.203125 614.082031 C 703.660156 610.40625 706.910156 607.636719 710.6875 607.78125 L 763.175781 609.75 C 763.210938 609.75 763.242188 609.753906 763.277344 609.757812 C 765.726562 610.035156 767.621094 611.777344 768.105469 614.1875 C 768.589844 616.601562 767.523438 618.941406 765.375 620.148438 L 719.15625 646.144531 C 718.957031 646.257812 718.726562 646.320312 718.496094 646.320312 "/>
<path style=" stroke:none;fill-rule:nonzero;fill:rgb(0%,0%,0%);fill-opacity:1;" d="M 755.386719 618.734375 C 755.371094 618.734375 755.355469 618.734375 755.34375 618.734375 L 711.066406 617.296875 C 710.324219 617.273438 709.742188 616.648438 709.761719 615.90625 C 709.785156 615.160156 710.425781 614.585938 711.15625 614.597656 L 755.429688 616.03125 C 756.175781 616.058594 756.761719 616.683594 756.738281 617.425781 C 756.714844 618.15625 756.113281 618.734375 755.386719 618.734375 "/>
<path style=" stroke:none;fill-rule:nonzero;fill:rgb(0%,0%,0%);fill-opacity:1;" d="M 578.945312 728.03125 C 578.945312 728.03125 608.167969 685.949219 623.203125 669.207031 C 638.242188 652.464844 648.929688 634.539062 648.929688 634.539062 C 648.929688 634.539062 679.917969 647.882812 696.3125 663.675781 L 624.710938 737.898438 L 578.945312 728.03125 "/>
<path style=" stroke:none;fill-rule:nonzero;fill:rgb(0%,0%,0%);fill-opacity:1;" d="M 481.082031 710.28125 C 481.082031 710.28125 487.574219 707.882812 490.414062 699.773438 C 493.253906 691.667969 494.640625 675.007812 488.0625 676.558594 C 481.484375 678.113281 467.445312 712.835938 467.445312 712.835938 L 481.082031 710.28125 "/>
<path style=" stroke:none;fill-rule:nonzero;fill:rgb(0%,0%,0%);fill-opacity:1;" d="M 442.316406 745.296875 L 703.257812 745.296875 L 679.726562 707.648438 C 679.726562 707.648438 642.390625 698.519531 622.992188 706.167969 C 603.597656 713.816406 591.253906 717.792969 576.785156 715.933594 C 562.3125 714.078125 529.414062 695.507812 508.519531 697.527344 C 487.632812 699.546875 453.433594 713.460938 453.433594 713.460938 L 442.316406 745.296875 "/>
<path style=" stroke:none;fill-rule:nonzero;fill:rgb(100%,100%,100%);fill-opacity:1;" d="M 586.1875 716.292969 C 585.488281 716.292969 584.894531 715.746094 584.84375 715.03125 C 584.796875 714.285156 585.359375 713.640625 586.105469 713.59375 C 596.03125 712.941406 606.132812 709.570312 621.308594 703.585938 C 628.566406 700.722656 638.964844 699.800781 652.21875 700.851562 C 652.964844 700.914062 653.523438 701.5625 653.460938 702.304688 C 653.402344 703.050781 652.742188 703.585938 652.011719 703.542969 C 639.160156 702.527344 629.167969 703.386719 622.300781 706.09375 C 606.871094 712.183594 596.5625 715.605469 586.285156 716.289062 C 586.253906 716.289062 586.226562 716.292969 586.1875 716.292969 "/>
<path style=" stroke:none;fill-rule:nonzero;fill:rgb(100%,100%,100%);fill-opacity:1;" d="M 472.558594 706.675781 C 471.980469 706.675781 471.445312 706.304688 471.265625 705.726562 C 471.046875 705.011719 471.445312 704.253906 472.15625 704.035156 L 494.425781 697.15625 C 495.140625 696.941406 495.894531 697.335938 496.117188 698.046875 C 496.335938 698.761719 495.9375 699.519531 495.226562 699.738281 L 472.960938 706.617188 C 472.824219 706.65625 472.691406 706.675781 472.558594 706.675781 "/>
<path style=" stroke:none;fill-rule:nonzero;fill:rgb(97.648621%,78.819275%,19.999695%);fill-opacity:1;" d="M 394.277344 726.015625 L 364.902344 667.808594 C 363.582031 665.203125 360.097656 661.679688 357.265625 660.957031 L 334.910156 658.089844 C 333.164062 657.753906 331.773438 659.609375 332.636719 661.164062 C 333.582031 662.867188 335.472656 663.390625 337.085938 663.9375 L 342.820312 665.886719 C 342.820312 665.886719 343.96875 679.40625 359.128906 680.308594 L 375.648438 726.015625 L 394.277344 726.015625 "/>
<path style=" stroke:none;fill-rule:nonzero;fill:rgb(0%,0%,0%);fill-opacity:1;" d="M 376.59375 724.664062 L 392.082031 724.664062 L 363.695312 668.414062 C 362.515625 666.085938 359.355469 662.933594 357.007812 662.285156 L 334.738281 659.429688 C 334.207031 659.332031 333.941406 659.636719 333.871094 659.730469 C 333.769531 659.875 333.625 660.167969 333.820312 660.503906 C 334.441406 661.628906 335.765625 662.070312 337.164062 662.539062 L 343.257812 664.605469 C 343.765625 664.777344 344.121094 665.238281 344.171875 665.773438 C 344.214844 666.273438 345.441406 678.144531 359.207031 678.960938 C 359.746094 678.992188 360.21875 679.34375 360.402344 679.847656 Z M 394.277344 727.367188 L 375.648438 727.367188 C 375.078125 727.367188 374.570312 727.007812 374.375 726.476562 L 358.15625 681.589844 C 345.136719 680.371094 342.203125 670.042969 341.617188 666.898438 L 336.308594 665.101562 C 334.652344 664.546875 332.585938 663.855469 331.457031 661.816406 C 330.804688 660.652344 330.890625 659.242188 331.683594 658.152344 C 332.488281 657.039062 333.828125 656.511719 335.164062 656.761719 L 357.4375 659.621094 C 357.496094 659.628906 357.546875 659.636719 357.601562 659.652344 C 360.808594 660.464844 364.59375 664.210938 366.109375 667.199219 L 395.484375 725.40625 C 395.691406 725.824219 395.671875 726.324219 395.425781 726.722656 C 395.183594 727.121094 394.746094 727.367188 394.277344 727.367188 "/>
<path style=" stroke:none;fill-rule:nonzero;fill:rgb(0%,0%,0%);fill-opacity:1;" d="M 357.8125 666.074219 C 357.78125 666.074219 357.753906 666.078125 357.730469 666.082031 C 357.761719 666.078125 357.785156 666.074219 357.8125 666.074219 Z M 358.390625 677.292969 C 358.332031 677.292969 358.269531 677.292969 358.214844 677.28125 C 355.949219 676.984375 354.3125 676.121094 353.351562 674.71875 C 352.597656 673.609375 351.71875 672.871094 350.738281 672.515625 C 349.261719 671.976562 348.066406 671.046875 347.191406 669.75 C 346.382812 668.550781 346.402344 667.011719 347.238281 665.824219 C 348.078125 664.636719 349.53125 664.101562 350.941406 664.460938 C 356.46875 665.886719 357.625 666.054688 357.839844 666.070312 C 358.53125 666.011719 359.15625 666.539062 359.25 667.246094 C 359.34375 667.984375 358.824219 668.660156 358.082031 668.757812 C 357.722656 668.804688 357.234375 668.867188 350.265625 667.074219 C 349.800781 666.960938 349.539062 667.25 349.445312 667.382812 C 349.355469 667.511719 349.167969 667.855469 349.429688 668.246094 C 349.988281 669.066406 350.714844 669.628906 351.664062 669.976562 C 353.179688 670.527344 354.503906 671.609375 355.585938 673.191406 C 356.089844 673.929688 357.117188 674.414062 358.566406 674.605469 C 359.304688 674.703125 359.824219 675.382812 359.730469 676.121094 C 359.640625 676.800781 359.058594 677.292969 358.390625 677.292969 "/>
<path style=" stroke:none;fill-rule:nonzero;fill:rgb(97.648621%,78.819275%,19.999695%);fill-opacity:1;" d="M 460.527344 744.515625 L 488.0625 676.558594 C 488.0625 676.558594 477.863281 681.175781 462.222656 675.554688 C 446.585938 669.925781 429.617188 662.839844 420.671875 670.273438 L 401.984375 691.398438 L 407.710938 692.769531 L 414.535156 718.097656 L 421.238281 729.882812 C 426.960938 739.933594 437.066406 745.101562 448.640625 745.101562 L 460.527344 744.515625 "/>
<path style=" stroke:none;fill-rule:nonzero;fill:rgb(97.648621%,78.819275%,19.999695%);fill-opacity:1;" d="M 329.769531 677.414062 L 307.792969 654.027344 L 295.0625 652.886719 C 295.0625 652.886719 317.128906 679 317.734375 680.777344 C 318.335938 682.554688 329.769531 677.414062 329.769531 677.414062 "/>
<path style=" stroke:none;fill-rule:nonzero;fill:rgb(0%,0%,0%);fill-opacity:1;" d="M 298.210938 654.527344 C 305.089844 662.691406 316.703125 676.59375 318.726562 679.8125 C 320.011719 679.800781 323.855469 678.46875 327.472656 676.945312 L 307.15625 655.328125 Z M 318.957031 680.210938 C 318.980469 680.261719 319 680.304688 319.007812 680.34375 C 319 680.292969 318.976562 680.253906 318.957031 680.210938 Z M 318.554688 682.46875 C 318.125 682.46875 317.753906 682.410156 317.46875 682.292969 C 316.976562 682.074219 316.617188 681.691406 316.453125 681.210938 C 315.671875 679.625 302.277344 663.519531 294.03125 653.761719 C 293.675781 653.339844 293.609375 652.753906 293.863281 652.265625 C 294.117188 651.78125 294.632812 651.5 295.183594 651.542969 L 307.910156 652.683594 C 308.242188 652.71875 308.546875 652.863281 308.777344 653.105469 L 330.753906 676.488281 C 331.054688 676.808594 331.179688 677.253906 331.097656 677.679688 C 331.007812 678.109375 330.722656 678.46875 330.324219 678.648438 C 326.949219 680.164062 321.359375 682.46875 318.554688 682.46875 "/>
<path style=" stroke:none;fill-rule:nonzero;fill:rgb(97.648621%,78.819275%,19.999695%);fill-opacity:1;" d="M 403.953125 690.828125 C 403.953125 690.828125 422.707031 694.878906 425.640625 711.667969 L 398.800781 742.214844 C 394.5 747.113281 386.996094 747.488281 382.230469 743.042969 L 327.207031 691.78125 L 312.867188 680.59375 C 309.429688 677.90625 307.035156 674.105469 306.097656 669.851562 L 305.917969 668.71875 C 305.757812 667.6875 306.988281 667.042969 307.738281 667.761719 C 310.554688 670.464844 315.511719 674.71875 320.339844 676.441406 C 322.667969 677.273438 324.878906 674.167969 323.921875 671.886719 L 320.4375 667.53125 C 319.105469 665.722656 321.316406 663.511719 322.59375 663.859375 C 325.324219 664.605469 329.667969 667.855469 331.152344 670.609375 C 332.15625 672.46875 334.226562 678.742188 335.859375 682.125 C 336.722656 683.914062 338.066406 685.429688 339.742188 686.507812 L 382.523438 715.746094 L 403.953125 690.828125 "/>
<path style=" stroke:none;fill-rule:nonzero;fill:rgb(0%,0%,0%);fill-opacity:1;" d="M 307.375 669.277344 L 307.429688 669.640625 C 308.285156 673.503906 310.519531 677.039062 313.703125 679.527344 L 328.039062 690.71875 C 328.070312 690.742188 328.101562 690.765625 328.132812 690.792969 L 383.152344 742.058594 C 385.1875 743.957031 387.847656 744.917969 390.621094 744.785156 C 393.402344 744.648438 395.945312 743.417969 397.78125 741.324219 L 424.1875 711.273438 C 421.464844 697.925781 407.824219 693.300781 404.429688 692.347656 L 383.546875 716.625 C 383.09375 717.140625 382.328125 717.246094 381.757812 716.855469 L 338.976562 687.625 C 337.125 686.429688 335.613281 684.726562 334.640625 682.707031 C 333.769531 680.898438 332.777344 678.304688 331.90625 676.011719 C 331.132812 673.980469 330.40625 672.0625 329.964844 671.246094 C 328.636719 668.777344 324.535156 665.789062 322.242188 665.164062 C 322.160156 665.183594 321.691406 665.460938 321.46875 665.953125 C 321.292969 666.332031 321.398438 666.554688 321.523438 666.734375 L 324.980469 671.039062 C 325.058594 671.136719 325.117188 671.246094 325.167969 671.363281 C 325.875 673.046875 325.4375 675.140625 324.074219 676.578125 C 322.910156 677.804688 321.339844 678.230469 319.882812 677.710938 C 315.265625 676.066406 310.625 672.324219 307.375 669.277344 Z M 390.09375 747.496094 C 386.820312 747.496094 383.722656 746.28125 381.308594 744.035156 L 326.332031 692.808594 L 312.039062 681.65625 C 308.359375 678.785156 305.78125 674.695312 304.777344 670.140625 L 304.582031 668.925781 C 304.417969 667.871094 304.921875 666.878906 305.863281 666.386719 C 306.804688 665.894531 307.910156 666.054688 308.675781 666.789062 C 311.195312 669.203125 316.109375 673.5 320.792969 675.171875 C 321.378906 675.378906 321.871094 674.972656 322.117188 674.71875 C 322.609375 674.199219 322.960938 673.3125 322.730469 672.554688 L 319.382812 668.375 C 318.449219 667.109375 318.453125 665.53125 319.359375 664.210938 C 320.257812 662.902344 321.738281 662.21875 322.949219 662.554688 C 325.878906 663.351562 330.617188 666.765625 332.339844 669.96875 C 332.867188 670.9375 333.59375 672.84375 334.433594 675.050781 C 335.285156 677.292969 336.25 679.832031 337.078125 681.535156 C 337.832031 683.105469 339.007812 684.429688 340.46875 685.371094 L 382.285156 713.945312 L 402.929688 689.949219 C 403.25 689.574219 403.753906 689.402344 404.242188 689.511719 C 404.4375 689.554688 423.917969 693.953125 426.96875 711.433594 C 427.039062 711.839844 426.921875 712.25 426.65625 712.558594 L 399.8125 743.105469 C 397.492188 745.753906 394.273438 747.304688 390.757812 747.480469 C 390.535156 747.496094 390.3125 747.496094 390.09375 747.496094 "/>
<path style=" stroke:none;fill-rule:nonzero;fill:rgb(0%,0%,0%);fill-opacity:1;" d="M 472.996094 745.289062 L 406.871094 745.289062 C 406.125 745.289062 405.519531 744.683594 405.519531 743.941406 C 405.519531 743.191406 406.125 742.585938 406.871094 742.585938 L 472.996094 742.585938 C 473.746094 742.585938 474.347656 743.191406 474.347656 743.941406 C 474.347656 744.683594 473.746094 745.289062 472.996094 745.289062 "/>
<path style=" stroke:none;fill-rule:nonzero;fill:rgb(0%,0%,0%);fill-opacity:1;" d="M 351.503906 745.289062 L 334.484375 745.289062 C 333.742188 745.289062 333.136719 744.683594 333.136719 743.941406 C 333.136719 743.191406 333.742188 742.585938 334.484375 742.585938 L 351.503906 742.585938 C 352.253906 742.585938 352.859375 743.191406 352.859375 743.941406 C 352.859375 744.683594 352.253906 745.289062 351.503906 745.289062 "/>
<path style=" stroke:none;fill-rule:nonzero;fill:rgb(97.648621%,78.819275%,19.999695%);fill-opacity:1;" d="M 429.109375 496.667969 C 428.363281 496.667969 427.757812 496.0625 427.757812 495.316406 L 427.757812 484.558594 C 427.757812 483.816406 428.363281 483.210938 429.109375 483.210938 C 429.855469 483.210938 430.460938 483.816406 430.460938 484.558594 L 430.460938 495.316406 C 430.460938 496.0625 429.855469 496.667969 429.109375 496.667969 "/>
<path style=" stroke:none;fill-rule:nonzero;fill:rgb(97.648621%,78.819275%,19.999695%);fill-opacity:1;" d="M 418.039062 498.808594 C 417.691406 498.808594 417.347656 498.671875 417.082031 498.410156 L 412.9375 494.265625 C 412.410156 493.738281 412.410156 492.882812 412.9375 492.355469 C 413.464844 491.828125 414.320312 491.828125 414.847656 492.355469 L 418.996094 496.5 C 419.523438 497.027344 419.523438 497.882812 418.996094 498.410156 C 418.730469 498.671875 418.382812 498.808594 418.039062 498.808594 "/>
<path style=" stroke:none;fill-rule:nonzero;fill:rgb(97.648621%,78.819275%,19.999695%);fill-opacity:1;" d="M 440.179688 498.808594 C 439.832031 498.808594 439.488281 498.671875 439.222656 498.410156 C 438.695312 497.882812 438.695312 497.027344 439.222656 496.5 L 443.371094 492.355469 C 443.898438 491.828125 444.753906 491.828125 445.28125 492.355469 C 445.808594 492.882812 445.808594 493.738281 445.28125 494.265625 L 441.136719 498.410156 C 440.871094 498.671875 440.527344 498.808594 440.179688 498.808594 "/>
<path style=" stroke:none;fill-rule:nonzero;fill:rgb(97.648621%,78.819275%,19.999695%);fill-opacity:1;" d="M 314.867188 589.933594 C 314.121094 589.933594 313.515625 589.328125 313.515625 588.582031 L 313.515625 577.824219 C 313.515625 577.082031 314.121094 576.476562 314.867188 576.476562 C 315.613281 576.476562 316.21875 577.082031 316.21875 577.824219 L 316.21875 588.582031 C 316.21875 589.328125 315.613281 589.933594 314.867188 589.933594 "/>
<path style=" stroke:none;fill-rule:nonzero;fill:rgb(97.648621%,78.819275%,19.999695%);fill-opacity:1;" d="M 303.796875 592.074219 C 303.453125 592.074219 303.105469 591.9375 302.84375 591.675781 L 298.695312 587.535156 C 298.167969 587.003906 298.167969 586.148438 298.695312 585.625 C 299.222656 585.09375 300.078125 585.09375 300.605469 585.625 L 304.753906 589.765625 C 305.28125 590.296875 305.28125 591.152344 304.753906 591.675781 C 304.488281 591.9375 304.144531 592.074219 303.796875 592.074219 "/>
<path style=" stroke:none;fill-rule:nonzero;fill:rgb(97.648621%,78.819275%,19.999695%);fill-opacity:1;" d="M 325.9375 592.074219 C 325.59375 592.074219 325.246094 591.9375 324.984375 591.675781 C 324.457031 591.152344 324.457031 590.296875 324.984375 589.765625 L 329.128906 585.625 C 329.65625 585.09375 330.511719 585.09375 331.039062 585.625 C 331.566406 586.148438 331.566406 587.003906 331.039062 587.535156 L 326.890625 591.675781 C 326.628906 591.9375 326.285156 592.074219 325.9375 592.074219 "/>
<path style=" stroke:none;fill-rule:nonzero;fill:rgb(97.648621%,78.819275%,19.999695%);fill-opacity:1;" d="M 646.769531 496.667969 C 646.019531 496.667969 645.417969 496.0625 645.417969 495.316406 L 645.417969 484.558594 C 645.417969 483.816406 646.019531 483.210938 646.769531 483.210938 C 647.511719 483.210938 648.117188 483.816406 648.117188 484.558594 L 648.117188 495.316406 C 648.117188 496.0625 647.511719 496.667969 646.769531 496.667969 "/>
<path style=" stroke:none;fill-rule:nonzero;fill:rgb(97.648621%,78.819275%,19.999695%);fill-opacity:1;" d="M 635.699219 498.808594 C 635.355469 498.808594 635.003906 498.671875 634.742188 498.410156 L 630.59375 494.261719 C 630.070312 493.734375 630.070312 492.882812 630.59375 492.355469 C 631.125 491.828125 631.980469 491.828125 632.507812 492.355469 L 636.65625 496.5 C 637.183594 497.027344 637.183594 497.882812 636.65625 498.410156 C 636.386719 498.671875 636.042969 498.808594 635.699219 498.808594 "/>
<path style=" stroke:none;fill-rule:nonzero;fill:rgb(97.648621%,78.819275%,19.999695%);fill-opacity:1;" d="M 657.835938 498.808594 C 657.492188 498.808594 657.144531 498.671875 656.882812 498.410156 C 656.355469 497.882812 656.355469 497.027344 656.882812 496.5 L 661.027344 492.355469 C 661.554688 491.828125 662.410156 491.828125 662.9375 492.355469 C 663.464844 492.882812 663.464844 493.738281 662.9375 494.265625 L 658.792969 498.410156 C 658.527344 498.671875 658.183594 498.808594 657.835938 498.808594 "/>
<path style=" stroke:none;fill-rule:nonzero;fill:rgb(97.648621%,78.819275%,19.999695%);fill-opacity:1;" d="M 231.09375 768.101562 C 230.90625 768.101562 230.71875 768.058594 230.535156 767.976562 C 202.734375 755.382812 177.140625 739.621094 154.464844 721.117188 C 129.546875 700.789062 105.839844 675.214844 85.910156 647.160156 C 85.480469 646.554688 85.621094 645.707031 86.230469 645.28125 C 86.839844 644.847656 87.683594 644.992188 88.113281 645.597656 C 107.90625 673.457031 131.441406 698.847656 156.175781 719.027344 C 178.667969 737.382812 204.0625 753.023438 231.652344 765.519531 C 232.328125 765.828125 232.632812 766.625 232.324219 767.308594 C 232.097656 767.808594 231.605469 768.101562 231.09375 768.101562 "/>
<path style=" stroke:none;fill-rule:nonzero;fill:rgb(97.648621%,78.819275%,19.999695%);fill-opacity:1;" d="M 71.421875 624.050781 C 70.964844 624.050781 70.519531 623.824219 70.265625 623.40625 C 60.300781 607.046875 51.480469 589.902344 44.054688 572.460938 C 43.761719 571.777344 44.082031 570.980469 44.765625 570.691406 C 45.453125 570.398438 46.246094 570.71875 46.539062 571.40625 C 53.917969 588.726562 62.675781 605.75 72.574219 622 C 72.960938 622.640625 72.757812 623.46875 72.121094 623.855469 C 71.902344 623.992188 71.660156 624.050781 71.421875 624.050781 "/>
<path style=" stroke:none;fill-rule:nonzero;fill:rgb(0%,0%,0%);fill-opacity:1;" d="M 682.828125 80.066406 C 677.722656 80.066406 672.898438 78.175781 669.132812 74.683594 L 657.226562 63.246094 C 656.691406 62.730469 656.675781 61.875 657.191406 61.335938 C 657.707031 60.804688 658.566406 60.785156 659.105469 61.300781 L 670.988281 72.714844 C 674.433594 75.917969 678.949219 77.570312 683.675781 77.347656 C 688.402344 77.121094 692.738281 75.054688 695.886719 71.523438 L 701.757812 64.898438 C 702.253906 64.339844 703.109375 64.285156 703.660156 64.78125 C 704.226562 65.277344 704.277344 66.128906 703.785156 66.6875 L 697.910156 73.316406 C 694.269531 77.402344 689.261719 79.785156 683.800781 80.046875 C 683.476562 80.0625 683.148438 80.066406 682.828125 80.066406 "/>
<path style=" stroke:none;fill-rule:nonzero;fill:rgb(0%,0%,0%);fill-opacity:1;" d="M 740.699219 93.90625 C 737.753906 93.90625 734.96875 92.816406 732.792969 90.800781 L 727.394531 85.851562 C 726.839844 85.347656 726.804688 84.488281 727.308594 83.941406 C 727.816406 83.394531 728.667969 83.351562 729.214844 83.855469 L 734.632812 88.816406 C 736.40625 90.46875 738.71875 91.289062 741.136719 91.195312 C 743.5625 91.085938 745.777344 90.027344 747.390625 88.214844 L 754.296875 80.476562 C 754.792969 79.917969 755.644531 79.871094 756.199219 80.363281 C 756.761719 80.867188 756.808594 81.71875 756.308594 82.269531 L 749.40625 90.015625 C 747.3125 92.371094 744.421875 93.75 741.265625 93.894531 C 741.078125 93.902344 740.890625 93.90625 740.699219 93.90625 "/>
</g>
</svg>
