<?xml version="1.0" encoding="UTF-8"?>
<svg xmlns="http://www.w3.org/2000/svg" xmlns:xlink="http://www.w3.org/1999/xlink" width="810pt" height="809.999993pt" viewBox="0 0 810 809.999993" version="1.2">
<defs>
<clipPath id="clip1">
  <path d="M 28.625 28.625 L 771.875 28.625 L 771.875 771.875 L 28.625 771.875 Z M 28.625 28.625 "/>
</clipPath>
<clipPath id="clip2">
  <path d="M 562.585938 606 L 750.085938 606 L 750.085938 794 L 562.585938 794 Z M 562.585938 606 "/>
</clipPath>
</defs>
<g id="surface1">
<path style=" stroke:none;fill-rule:nonzero;fill:rgb(97.648621%,78.819275%,19.999695%);fill-opacity:1;" d="M 764.546875 400.207031 C 764.546875 198.988281 601.429688 35.871094 400.207031 35.871094 C 198.988281 35.871094 35.871094 198.988281 35.871094 400.207031 C 35.871094 601.429688 198.988281 764.546875 400.207031 764.546875 C 601.429688 764.546875 764.546875 601.429688 764.546875 400.207031 "/>
<g clip-path="url(#clip1)" clip-rule="nonzero">
<path style=" stroke:none;fill-rule:nonzero;fill:rgb(0%,0%,0%);fill-opacity:1;" d="M 400.207031 43.113281 C 203.308594 43.113281 43.113281 203.308594 43.113281 400.207031 C 43.113281 597.105469 203.308594 757.300781 400.207031 757.300781 C 597.105469 757.300781 757.300781 597.105469 757.300781 400.207031 C 757.300781 203.308594 597.105469 43.113281 400.207031 43.113281 Z M 400.207031 771.792969 C 300.953125 771.792969 207.644531 733.140625 137.460938 662.957031 C 67.277344 592.773438 28.625 499.460938 28.625 400.207031 C 28.625 300.953125 67.277344 207.644531 137.460938 137.460938 C 207.644531 67.277344 300.953125 28.625 400.207031 28.625 C 499.460938 28.625 592.773438 67.277344 662.957031 137.460938 C 733.136719 207.644531 771.792969 300.953125 771.792969 400.207031 C 771.792969 499.460938 733.136719 592.773438 662.957031 662.957031 C 592.773438 733.140625 499.460938 771.792969 400.207031 771.792969 "/>
</g>
<path style=" stroke:none;fill-rule:nonzero;fill:rgb(97.648621%,78.819275%,19.999695%);fill-opacity:1;" d="M 733.910156 400.207031 C 733.910156 215.910156 584.503906 66.507812 400.207031 66.507812 C 215.910156 66.507812 66.507812 215.910156 66.507812 400.207031 C 66.507812 584.503906 215.910156 733.910156 400.207031 733.910156 C 584.503906 733.910156 733.910156 584.503906 733.910156 400.207031 "/>
<path style=" stroke:none;fill-rule:nonzero;fill:rgb(97.648621%,78.819275%,19.999695%);fill-opacity:1;" d="M 709.894531 400.207031 C 709.894531 229.171875 571.242188 90.519531 400.207031 90.519531 C 229.171875 90.519531 90.519531 229.171875 90.519531 400.207031 C 90.519531 571.242188 229.171875 709.894531 400.207031 709.894531 C 571.242188 709.894531 709.894531 571.242188 709.894531 400.207031 "/>
<path style=" stroke:none;fill-rule:nonzero;fill:rgb(100%,100%,100%);fill-opacity:1;" d="M 401.273438 301.84375 L 398.1875 301.84375 C 394.191406 301.84375 390.945312 305.085938 390.945312 309.089844 C 390.945312 313.089844 394.191406 316.335938 398.1875 316.335938 L 401.273438 316.335938 C 405.28125 316.335938 408.519531 313.089844 408.519531 309.089844 C 408.519531 305.085938 405.28125 301.84375 401.273438 301.84375 "/>
<path style=" stroke:none;fill-rule:nonzero;fill:rgb(100%,100%,100%);fill-opacity:1;" d="M 440.378906 301.84375 L 437.296875 301.84375 C 433.289062 301.84375 430.050781 305.085938 430.050781 309.089844 C 430.050781 313.089844 433.289062 316.335938 437.296875 316.335938 L 440.378906 316.335938 C 444.378906 316.335938 447.625 313.089844 447.625 309.089844 C 447.625 305.085938 444.378906 301.84375 440.378906 301.84375 "/>
<path style=" stroke:none;fill-rule:nonzero;fill:rgb(100%,100%,100%);fill-opacity:1;" d="M 362.175781 301.84375 L 359.089844 301.84375 C 355.09375 301.84375 351.84375 305.085938 351.84375 309.089844 C 351.84375 313.089844 355.09375 316.335938 359.089844 316.335938 L 362.175781 316.335938 C 366.179688 316.335938 369.421875 313.089844 369.421875 309.089844 C 369.421875 305.085938 366.179688 301.84375 362.175781 301.84375 "/>
<path style=" stroke:none;fill-rule:nonzero;fill:rgb(100%,100%,100%);fill-opacity:1;" d="M 440.378906 332.359375 L 437.296875 332.359375 C 433.289062 332.359375 430.050781 335.609375 430.050781 339.605469 C 430.050781 343.609375 433.289062 346.851562 437.296875 346.851562 L 440.378906 346.851562 C 444.378906 346.851562 447.625 343.609375 447.625 339.605469 C 447.625 335.609375 444.378906 332.359375 440.378906 332.359375 "/>
<path style=" stroke:none;fill-rule:nonzero;fill:rgb(100%,100%,100%);fill-opacity:1;" d="M 401.273438 332.359375 L 398.1875 332.359375 C 394.191406 332.359375 390.945312 335.609375 390.945312 339.605469 C 390.945312 343.609375 394.191406 346.851562 398.1875 346.851562 L 401.273438 346.851562 C 405.28125 346.851562 408.519531 343.609375 408.519531 339.605469 C 408.519531 335.609375 405.28125 332.359375 401.273438 332.359375 "/>
<path style=" stroke:none;fill-rule:nonzero;fill:rgb(100%,100%,100%);fill-opacity:1;" d="M 362.175781 332.359375 L 359.089844 332.359375 C 355.09375 332.359375 351.84375 335.609375 351.84375 339.605469 C 351.84375 343.609375 355.09375 346.851562 359.089844 346.851562 L 362.175781 346.851562 C 366.179688 346.851562 369.421875 343.609375 369.421875 339.605469 C 369.421875 335.609375 366.179688 332.359375 362.175781 332.359375 "/>
<path style=" stroke:none;fill-rule:nonzero;fill:rgb(100%,100%,100%);fill-opacity:1;" d="M 362.175781 362.882812 L 359.089844 362.882812 C 355.09375 362.882812 351.84375 366.121094 351.84375 370.125 C 351.84375 374.125 355.09375 377.371094 359.089844 377.371094 L 362.175781 377.371094 C 366.179688 377.371094 369.421875 374.125 369.421875 370.125 C 369.421875 366.121094 366.179688 362.882812 362.175781 362.882812 "/>
<path style=" stroke:none;fill-rule:nonzero;fill:rgb(100%,100%,100%);fill-opacity:1;" d="M 440.378906 362.882812 L 437.296875 362.882812 C 433.289062 362.882812 430.050781 366.121094 430.050781 370.125 C 430.050781 374.125 433.289062 377.371094 437.296875 377.371094 L 440.378906 377.371094 C 444.378906 377.371094 447.625 374.125 447.625 370.125 C 447.625 366.121094 444.378906 362.882812 440.378906 362.882812 "/>
<path style=" stroke:none;fill-rule:nonzero;fill:rgb(100%,100%,100%);fill-opacity:1;" d="M 401.273438 362.882812 L 398.1875 362.882812 C 394.191406 362.882812 390.945312 366.121094 390.945312 370.125 C 390.945312 374.125 394.191406 377.371094 398.1875 377.371094 L 401.273438 377.371094 C 405.28125 377.371094 408.519531 374.125 408.519531 370.125 C 408.519531 366.121094 405.28125 362.882812 401.273438 362.882812 "/>
<path style=" stroke:none;fill-rule:nonzero;fill:rgb(100%,100%,100%);fill-opacity:1;" d="M 362.175781 393.394531 L 359.089844 393.394531 C 355.09375 393.394531 351.84375 396.644531 351.84375 400.640625 C 351.84375 404.644531 355.09375 407.886719 359.089844 407.886719 L 362.175781 407.886719 C 366.179688 407.886719 369.421875 404.644531 369.421875 400.640625 C 369.421875 396.644531 366.179688 393.394531 362.175781 393.394531 "/>
<path style=" stroke:none;fill-rule:nonzero;fill:rgb(100%,100%,100%);fill-opacity:1;" d="M 440.378906 393.394531 L 437.296875 393.394531 C 433.289062 393.394531 430.050781 396.644531 430.050781 400.640625 C 430.050781 404.644531 433.289062 407.886719 437.296875 407.886719 L 440.378906 407.886719 C 444.378906 407.886719 447.625 404.644531 447.625 400.640625 C 447.625 396.644531 444.378906 393.394531 440.378906 393.394531 "/>
<path style=" stroke:none;fill-rule:nonzero;fill:rgb(100%,100%,100%);fill-opacity:1;" d="M 401.273438 393.394531 L 398.1875 393.394531 C 394.191406 393.394531 390.945312 396.644531 390.945312 400.640625 C 390.945312 404.644531 394.191406 407.886719 398.1875 407.886719 L 401.273438 407.886719 C 405.28125 407.886719 408.519531 404.644531 408.519531 400.640625 C 408.519531 396.644531 405.28125 393.394531 401.273438 393.394531 "/>
<path style=" stroke:none;fill-rule:nonzero;fill:rgb(100%,100%,100%);fill-opacity:1;" d="M 440.378906 423.910156 L 437.296875 423.910156 C 433.289062 423.910156 430.050781 427.15625 430.050781 431.15625 C 430.050781 435.160156 433.289062 438.402344 437.296875 438.402344 L 440.378906 438.402344 C 444.378906 438.402344 447.625 435.160156 447.625 431.15625 C 447.625 427.15625 444.378906 423.910156 440.378906 423.910156 "/>
<path style=" stroke:none;fill-rule:nonzero;fill:rgb(100%,100%,100%);fill-opacity:1;" d="M 362.175781 423.910156 L 359.089844 423.910156 C 355.09375 423.910156 351.84375 427.15625 351.84375 431.15625 C 351.84375 435.160156 355.09375 438.402344 359.089844 438.402344 L 362.175781 438.402344 C 366.179688 438.402344 369.421875 435.160156 369.421875 431.15625 C 369.421875 427.15625 366.179688 423.910156 362.175781 423.910156 "/>
<path style=" stroke:none;fill-rule:nonzero;fill:rgb(100%,100%,100%);fill-opacity:1;" d="M 401.273438 423.910156 L 398.1875 423.910156 C 394.191406 423.910156 390.945312 427.15625 390.945312 431.15625 C 390.945312 435.160156 394.191406 438.402344 398.1875 438.402344 L 401.273438 438.402344 C 405.28125 438.402344 408.519531 435.160156 408.519531 431.15625 C 408.519531 427.15625 405.28125 423.910156 401.273438 423.910156 "/>
<path style=" stroke:none;fill-rule:nonzero;fill:rgb(100%,100%,100%);fill-opacity:1;" d="M 401.273438 454.433594 L 398.1875 454.433594 C 394.191406 454.433594 390.945312 457.671875 390.945312 461.675781 C 390.945312 465.675781 394.191406 468.921875 398.1875 468.921875 L 401.273438 468.921875 C 405.28125 468.921875 408.519531 465.675781 408.519531 461.675781 C 408.519531 457.671875 405.28125 454.433594 401.273438 454.433594 "/>
<path style=" stroke:none;fill-rule:nonzero;fill:rgb(100%,100%,100%);fill-opacity:1;" d="M 362.175781 454.433594 L 359.089844 454.433594 C 355.09375 454.433594 351.84375 457.671875 351.84375 461.675781 C 351.84375 465.675781 355.09375 468.921875 359.089844 468.921875 L 362.175781 468.921875 C 366.179688 468.921875 369.421875 465.675781 369.421875 461.675781 C 369.421875 457.671875 366.179688 454.433594 362.175781 454.433594 "/>
<path style=" stroke:none;fill-rule:nonzero;fill:rgb(100%,100%,100%);fill-opacity:1;" d="M 440.378906 454.433594 L 437.296875 454.433594 C 433.289062 454.433594 430.050781 457.671875 430.050781 461.675781 C 430.050781 465.675781 433.289062 468.921875 437.296875 468.921875 L 440.378906 468.921875 C 444.378906 468.921875 447.625 465.675781 447.625 461.675781 C 447.625 457.671875 444.378906 454.433594 440.378906 454.433594 "/>
<path style=" stroke:none;fill-rule:nonzero;fill:rgb(100%,100%,100%);fill-opacity:1;" d="M 246.222656 393.394531 L 243.140625 393.394531 C 239.132812 393.394531 235.894531 396.644531 235.894531 400.640625 C 235.894531 404.644531 239.132812 407.886719 243.140625 407.886719 L 246.222656 407.886719 C 250.230469 407.886719 253.46875 404.644531 253.46875 400.640625 C 253.46875 396.644531 250.230469 393.394531 246.222656 393.394531 "/>
<path style=" stroke:none;fill-rule:nonzero;fill:rgb(100%,100%,100%);fill-opacity:1;" d="M 285.328125 393.394531 L 282.238281 393.394531 C 278.238281 393.394531 274.992188 396.644531 274.992188 400.640625 C 274.992188 404.644531 278.238281 407.886719 282.238281 407.886719 L 285.328125 407.886719 C 289.328125 407.886719 292.574219 404.644531 292.574219 400.640625 C 292.574219 396.644531 289.328125 393.394531 285.328125 393.394531 "/>
<path style=" stroke:none;fill-rule:nonzero;fill:rgb(100%,100%,100%);fill-opacity:1;" d="M 285.328125 423.917969 L 282.238281 423.917969 C 278.238281 423.917969 274.992188 427.15625 274.992188 431.164062 C 274.992188 435.160156 278.238281 438.40625 282.238281 438.40625 L 285.328125 438.40625 C 289.328125 438.40625 292.574219 435.160156 292.574219 431.164062 C 292.574219 427.15625 289.328125 423.917969 285.328125 423.917969 "/>
<path style=" stroke:none;fill-rule:nonzero;fill:rgb(100%,100%,100%);fill-opacity:1;" d="M 246.222656 423.917969 L 243.140625 423.917969 C 239.132812 423.917969 235.894531 427.15625 235.894531 431.164062 C 235.894531 435.160156 239.132812 438.40625 243.140625 438.40625 L 246.222656 438.40625 C 250.230469 438.40625 253.46875 435.160156 253.46875 431.164062 C 253.46875 427.15625 250.230469 423.917969 246.222656 423.917969 "/>
<path style=" stroke:none;fill-rule:nonzero;fill:rgb(100%,100%,100%);fill-opacity:1;" d="M 246.222656 454.433594 L 243.140625 454.433594 C 239.132812 454.433594 235.894531 457.679688 235.894531 461.675781 C 235.894531 465.679688 239.132812 468.921875 243.140625 468.921875 L 246.222656 468.921875 C 250.230469 468.921875 253.46875 465.679688 253.46875 461.675781 C 253.46875 457.679688 250.230469 454.433594 246.222656 454.433594 "/>
<path style=" stroke:none;fill-rule:nonzero;fill:rgb(100%,100%,100%);fill-opacity:1;" d="M 285.328125 454.433594 L 282.238281 454.433594 C 278.238281 454.433594 274.992188 457.679688 274.992188 461.675781 C 274.992188 465.679688 278.238281 468.921875 282.238281 468.921875 L 285.328125 468.921875 C 289.328125 468.921875 292.574219 465.679688 292.574219 461.675781 C 292.574219 457.679688 289.328125 454.433594 285.328125 454.433594 "/>
<path style=" stroke:none;fill-rule:nonzero;fill:rgb(100%,100%,100%);fill-opacity:1;" d="M 246.222656 484.953125 L 243.140625 484.953125 C 239.132812 484.953125 235.894531 488.195312 235.894531 492.199219 C 235.894531 496.195312 239.132812 499.445312 243.140625 499.445312 L 246.222656 499.445312 C 250.230469 499.445312 253.46875 496.195312 253.46875 492.199219 C 253.46875 488.195312 250.230469 484.953125 246.222656 484.953125 "/>
<path style=" stroke:none;fill-rule:nonzero;fill:rgb(100%,100%,100%);fill-opacity:1;" d="M 285.328125 484.953125 L 282.238281 484.953125 C 278.238281 484.953125 274.992188 488.195312 274.992188 492.199219 C 274.992188 496.195312 278.238281 499.445312 282.238281 499.445312 L 285.328125 499.445312 C 289.328125 499.445312 292.574219 496.195312 292.574219 492.199219 C 292.574219 488.195312 289.328125 484.953125 285.328125 484.953125 "/>
<path style=" stroke:none;fill-rule:nonzero;fill:rgb(100%,100%,100%);fill-opacity:1;" d="M 246.222656 515.472656 L 243.140625 515.472656 C 239.132812 515.472656 235.894531 518.714844 235.894531 522.71875 C 235.894531 526.71875 239.132812 529.964844 243.140625 529.964844 L 246.222656 529.964844 C 250.230469 529.964844 253.46875 526.71875 253.46875 522.71875 C 253.46875 518.714844 250.230469 515.472656 246.222656 515.472656 "/>
<path style=" stroke:none;fill-rule:nonzero;fill:rgb(100%,100%,100%);fill-opacity:1;" d="M 285.328125 515.472656 L 282.238281 515.472656 C 278.238281 515.472656 274.992188 518.714844 274.992188 522.71875 C 274.992188 526.71875 278.238281 529.964844 282.238281 529.964844 L 285.328125 529.964844 C 289.328125 529.964844 292.574219 526.71875 292.574219 522.71875 C 292.574219 518.714844 289.328125 515.472656 285.328125 515.472656 "/>
<path style=" stroke:none;fill-rule:nonzero;fill:rgb(100%,100%,100%);fill-opacity:1;" d="M 318.003906 589.636719 L 314.539062 589.636719 C 310.539062 589.636719 307.292969 592.882812 307.292969 596.878906 C 307.292969 600.886719 310.539062 604.125 314.539062 604.125 L 318.003906 604.125 C 322.007812 604.125 325.25 600.886719 325.25 596.878906 C 325.25 592.882812 322.007812 589.636719 318.003906 589.636719 "/>
<path style=" stroke:none;fill-rule:nonzero;fill:rgb(100%,100%,100%);fill-opacity:1;" d="M 351.9375 589.636719 L 348.46875 589.636719 C 344.464844 589.636719 341.222656 592.882812 341.222656 596.878906 C 341.222656 600.886719 344.464844 604.125 348.46875 604.125 L 351.9375 604.125 C 355.933594 604.125 359.179688 600.886719 359.179688 596.878906 C 359.179688 592.882812 355.933594 589.636719 351.9375 589.636719 "/>
<path style=" stroke:none;fill-rule:nonzero;fill:rgb(100%,100%,100%);fill-opacity:1;" d="M 362.175781 240.808594 L 359.089844 240.808594 C 355.09375 240.808594 351.84375 244.050781 351.84375 248.054688 C 351.84375 252.054688 355.09375 255.300781 359.089844 255.300781 L 362.175781 255.300781 C 366.179688 255.300781 369.421875 252.054688 369.421875 248.054688 C 369.421875 244.050781 366.179688 240.808594 362.175781 240.808594 "/>
<path style=" stroke:none;fill-rule:nonzero;fill:rgb(100%,100%,100%);fill-opacity:1;" d="M 401.273438 240.808594 L 398.1875 240.808594 C 394.191406 240.808594 390.945312 244.050781 390.945312 248.054688 C 390.945312 252.054688 394.191406 255.300781 398.1875 255.300781 L 401.273438 255.300781 C 405.28125 255.300781 408.519531 252.054688 408.519531 248.054688 C 408.519531 244.050781 405.28125 240.808594 401.273438 240.808594 "/>
<path style=" stroke:none;fill-rule:nonzero;fill:rgb(100%,100%,100%);fill-opacity:1;" d="M 440.378906 240.808594 L 437.296875 240.808594 C 433.289062 240.808594 430.050781 244.050781 430.050781 248.054688 C 430.050781 252.054688 433.289062 255.300781 437.296875 255.300781 L 440.378906 255.300781 C 444.378906 255.300781 447.625 252.054688 447.625 248.054688 C 447.625 244.050781 444.378906 240.808594 440.378906 240.808594 "/>
<path style=" stroke:none;fill-rule:nonzero;fill:rgb(100%,100%,100%);fill-opacity:1;" d="M 401.273438 271.324219 L 398.1875 271.324219 C 394.191406 271.324219 390.945312 274.570312 390.945312 278.570312 C 390.945312 282.574219 394.191406 285.816406 398.1875 285.816406 L 401.273438 285.816406 C 405.28125 285.816406 408.519531 282.574219 408.519531 278.570312 C 408.519531 274.570312 405.28125 271.324219 401.273438 271.324219 "/>
<path style=" stroke:none;fill-rule:nonzero;fill:rgb(100%,100%,100%);fill-opacity:1;" d="M 440.378906 271.324219 L 437.296875 271.324219 C 433.289062 271.324219 430.050781 274.570312 430.050781 278.570312 C 430.050781 282.574219 433.289062 285.816406 437.296875 285.816406 L 440.378906 285.816406 C 444.378906 285.816406 447.625 282.574219 447.625 278.570312 C 447.625 274.570312 444.378906 271.324219 440.378906 271.324219 "/>
<path style=" stroke:none;fill-rule:nonzero;fill:rgb(100%,100%,100%);fill-opacity:1;" d="M 362.175781 271.324219 L 359.089844 271.324219 C 355.09375 271.324219 351.84375 274.570312 351.84375 278.570312 C 351.84375 282.574219 355.09375 285.816406 359.089844 285.816406 L 362.175781 285.816406 C 366.179688 285.816406 369.421875 282.574219 369.421875 278.570312 C 369.421875 274.570312 366.179688 271.324219 362.175781 271.324219 "/>
<path style=" stroke:none;fill-rule:nonzero;fill:rgb(100%,100%,100%);fill-opacity:1;" d="M 518.191406 393.394531 L 515.105469 393.394531 C 511.105469 393.394531 507.859375 396.644531 507.859375 400.640625 C 507.859375 404.644531 511.105469 407.886719 515.105469 407.886719 L 518.191406 407.886719 C 522.195312 407.886719 525.4375 404.644531 525.4375 400.640625 C 525.4375 396.644531 522.195312 393.394531 518.191406 393.394531 "/>
<path style=" stroke:none;fill-rule:nonzero;fill:rgb(100%,100%,100%);fill-opacity:1;" d="M 554.203125 407.886719 L 557.296875 407.886719 C 561.292969 407.886719 564.542969 404.644531 564.542969 400.640625 C 564.542969 396.644531 561.292969 393.394531 557.296875 393.394531 L 554.203125 393.394531 C 550.207031 393.394531 546.957031 396.644531 546.957031 400.640625 C 546.957031 404.644531 550.207031 407.886719 554.203125 407.886719 "/>
<path style=" stroke:none;fill-rule:nonzero;fill:rgb(100%,100%,100%);fill-opacity:1;" d="M 518.191406 423.917969 L 515.105469 423.917969 C 511.105469 423.917969 507.859375 427.15625 507.859375 431.164062 C 507.859375 435.160156 511.105469 438.40625 515.105469 438.40625 L 518.191406 438.40625 C 522.195312 438.40625 525.4375 435.160156 525.4375 431.164062 C 525.4375 427.15625 522.195312 423.917969 518.191406 423.917969 "/>
<path style=" stroke:none;fill-rule:nonzero;fill:rgb(100%,100%,100%);fill-opacity:1;" d="M 557.296875 423.917969 L 554.203125 423.917969 C 550.207031 423.917969 546.957031 427.15625 546.957031 431.164062 C 546.957031 435.160156 550.207031 438.40625 554.203125 438.40625 L 557.296875 438.40625 C 561.292969 438.40625 564.542969 435.160156 564.542969 431.164062 C 564.542969 427.15625 561.292969 423.917969 557.296875 423.917969 "/>
<path style=" stroke:none;fill-rule:nonzero;fill:rgb(100%,100%,100%);fill-opacity:1;" d="M 557.296875 454.433594 L 554.203125 454.433594 C 550.207031 454.433594 546.957031 457.679688 546.957031 461.675781 C 546.957031 465.679688 550.207031 468.921875 554.203125 468.921875 L 557.296875 468.921875 C 561.292969 468.921875 564.542969 465.679688 564.542969 461.675781 C 564.542969 457.679688 561.292969 454.433594 557.296875 454.433594 "/>
<path style=" stroke:none;fill-rule:nonzero;fill:rgb(100%,100%,100%);fill-opacity:1;" d="M 518.191406 454.433594 L 515.105469 454.433594 C 511.105469 454.433594 507.859375 457.679688 507.859375 461.675781 C 507.859375 465.679688 511.105469 468.921875 515.105469 468.921875 L 518.191406 468.921875 C 522.195312 468.921875 525.4375 465.679688 525.4375 461.675781 C 525.4375 457.679688 522.195312 454.433594 518.191406 454.433594 "/>
<path style=" stroke:none;fill-rule:nonzero;fill:rgb(100%,100%,100%);fill-opacity:1;" d="M 557.296875 484.953125 L 554.203125 484.953125 C 550.207031 484.953125 546.957031 488.195312 546.957031 492.199219 C 546.957031 496.195312 550.207031 499.445312 554.203125 499.445312 L 557.296875 499.445312 C 561.292969 499.445312 564.542969 496.195312 564.542969 492.199219 C 564.542969 488.195312 561.292969 484.953125 557.296875 484.953125 "/>
<path style=" stroke:none;fill-rule:nonzero;fill:rgb(100%,100%,100%);fill-opacity:1;" d="M 518.191406 484.953125 L 515.105469 484.953125 C 511.105469 484.953125 507.859375 488.195312 507.859375 492.199219 C 507.859375 496.195312 511.105469 499.445312 515.105469 499.445312 L 518.191406 499.445312 C 522.195312 499.445312 525.4375 496.195312 525.4375 492.199219 C 525.4375 488.195312 522.195312 484.953125 518.191406 484.953125 "/>
<path style=" stroke:none;fill-rule:nonzero;fill:rgb(100%,100%,100%);fill-opacity:1;" d="M 518.191406 515.472656 L 515.105469 515.472656 C 511.105469 515.472656 507.859375 518.714844 507.859375 522.71875 C 507.859375 526.71875 511.105469 529.964844 515.105469 529.964844 L 518.191406 529.964844 C 522.195312 529.964844 525.4375 526.71875 525.4375 522.71875 C 525.4375 518.714844 522.195312 515.472656 518.191406 515.472656 "/>
<path style=" stroke:none;fill-rule:nonzero;fill:rgb(100%,100%,100%);fill-opacity:1;" d="M 557.296875 515.472656 L 554.203125 515.472656 C 550.207031 515.472656 546.957031 518.714844 546.957031 522.71875 C 546.957031 526.71875 550.207031 529.964844 554.203125 529.964844 L 557.296875 529.964844 C 561.292969 529.964844 564.542969 526.71875 564.542969 522.71875 C 564.542969 518.714844 561.292969 515.472656 557.296875 515.472656 "/>
<path style=" stroke:none;fill-rule:nonzero;fill:rgb(0%,0%,0%);fill-opacity:1;" d="M 216.058594 371.574219 L 311.367188 371.574219 L 311.367188 554.613281 L 216.058594 554.613281 Z M 413.535156 554.613281 L 386.894531 554.613281 L 386.894531 506.292969 L 413.535156 506.292969 Z M 474.570312 210.78125 L 474.570312 554.613281 L 428.023438 554.613281 L 428.023438 499.050781 C 428.023438 495.050781 424.785156 491.804688 420.78125 491.804688 L 379.648438 491.804688 C 375.652344 491.804688 372.402344 495.050781 372.402344 499.050781 L 372.402344 554.613281 L 325.859375 554.613281 L 325.859375 210.78125 Z M 584.375 371.574219 L 584.375 554.613281 L 489.058594 554.613281 L 489.058594 371.574219 Z M 632.058594 554.613281 L 598.867188 554.613281 L 598.867188 371.574219 L 609.011719 371.574219 C 613.007812 371.574219 616.253906 368.328125 616.253906 364.332031 C 616.253906 360.324219 613.007812 357.085938 609.011719 357.085938 L 489.058594 357.085938 L 489.058594 210.78125 L 499.203125 210.78125 C 503.207031 210.78125 506.449219 207.53125 506.449219 203.535156 C 506.449219 199.53125 503.207031 196.289062 499.203125 196.289062 L 301.222656 196.289062 C 297.226562 196.289062 293.980469 199.53125 293.980469 203.535156 C 293.980469 207.53125 297.226562 210.78125 301.222656 210.78125 L 311.367188 210.78125 L 311.367188 357.085938 L 191.425781 357.085938 C 187.421875 357.085938 184.179688 360.324219 184.179688 364.332031 C 184.179688 368.328125 187.421875 371.574219 191.425781 371.574219 L 201.570312 371.574219 L 201.570312 554.613281 L 168.355469 554.613281 C 164.359375 554.613281 161.109375 557.851562 161.109375 561.855469 C 161.109375 565.855469 164.359375 569.101562 168.355469 569.101562 L 632.058594 569.101562 C 636.058594 569.101562 639.304688 565.855469 639.304688 561.855469 C 639.304688 557.851562 636.058594 554.613281 632.058594 554.613281 "/>
<path style=" stroke:none;fill-rule:nonzero;fill:rgb(0%,0%,0%);fill-opacity:1;" d="M 588.847656 589.636719 L 390.949219 589.636719 C 386.953125 589.636719 383.707031 592.882812 383.707031 596.878906 C 383.707031 600.886719 386.953125 604.125 390.949219 604.125 L 588.847656 604.125 C 592.851562 604.125 596.089844 600.886719 596.089844 596.878906 C 596.089844 592.882812 592.851562 589.636719 588.847656 589.636719 "/>
<path style=" stroke:none;fill-rule:nonzero;fill:rgb(0%,0%,0%);fill-opacity:1;" d="M 275.898438 589.636719 L 211.5625 589.636719 C 207.566406 589.636719 204.316406 592.882812 204.316406 596.878906 C 204.316406 600.886719 207.566406 604.125 211.5625 604.125 L 275.898438 604.125 C 279.894531 604.125 283.144531 600.886719 283.144531 596.878906 C 283.144531 592.882812 279.894531 589.636719 275.898438 589.636719 "/>
<g clip-path="url(#clip2)" clip-rule="nonzero">
<path style=" stroke:none;fill-rule:nonzero;fill:rgb(0%,0%,0%);fill-opacity:1;" d="M 750.085938 700.023438 C 750.085938 751.902344 708.128906 793.882812 656.332031 793.882812 C 604.546875 793.878906 562.585938 751.902344 562.585938 700.023438 C 562.585938 648.183594 604.546875 606.164062 656.328125 606.164062 C 708.125 606.164062 750.085938 648.183594 750.085938 700.023438 Z M 750.085938 700.023438 "/>
</g>
<path style=" stroke:none;fill-rule:nonzero;fill:rgb(100%,100%,100%);fill-opacity:1;" d="M 607.945312 688.890625 L 707.394531 688.890625 L 707.394531 712.339844 L 607.945312 712.339844 Z M 607.945312 688.890625 "/>
<path style=" stroke:none;fill-rule:nonzero;fill:rgb(100%,100%,100%);fill-opacity:1;" d="M 645.960938 650.835938 L 669.402344 650.835938 L 669.402344 750.386719 L 645.960938 750.386719 Z M 645.960938 650.835938 "/>
</g>
</svg>
