<?xml version="1.0" encoding="UTF-8"?>
<svg xmlns="http://www.w3.org/2000/svg" xmlns:xlink="http://www.w3.org/1999/xlink" width="810pt" height="809.999993pt" viewBox="0 0 810 809.999993" version="1.2">
<defs>
<clipPath id="clip1">
  <path d="M 248 237 L 728.964844 237 L 728.964844 554 L 248 554 Z M 248 237 "/>
</clipPath>
<clipPath id="clip2">
  <path d="M 398 677 L 507 677 L 507 781.9375 L 398 781.9375 Z M 398 677 "/>
</clipPath>
<clipPath id="clip3">
  <path d="M 195 677 L 297 677 L 297 781.9375 L 195 781.9375 Z M 195 677 "/>
</clipPath>
<clipPath id="clip4">
  <path d="M 349 28.1875 L 410 28.1875 L 410 140 L 349 140 Z M 349 28.1875 "/>
</clipPath>
</defs>
<g id="surface1">
<path style=" stroke:none;fill-rule:nonzero;fill:rgb(0%,0%,0%);fill-opacity:1;" d="M 280.761719 248.523438 C 280.761719 248.523438 205.902344 396.15625 292.578125 428.292969 C 379.257812 460.433594 419.765625 537.410156 436.335938 549.828125 C 452.914062 562.242188 456.222656 511.503906 487.667969 512.042969 C 519.121094 512.578125 534.839844 517.835938 559.667969 512.042969 C 584.492188 506.246094 582.839844 444.746094 600.214844 443.296875 C 617.597656 441.851562 670.566406 440.230469 688.765625 404.390625 C 706.980469 368.550781 726.835938 312.683594 726.835938 312.683594 C 726.835938 312.683594 402.382812 210.289062 280.761719 248.523438 "/>
<g clip-path="url(#clip1)" clip-rule="nonzero">
<path style="fill:none;stroke-width:94.338997;stroke-linecap:round;stroke-linejoin:round;stroke:rgb(0%,0%,0%);stroke-opacity:1;stroke-miterlimit:10;" d="M 5833.701536 13705.912873 C 5833.701536 13705.912873 4077.218743 10242.777919 6110.944451 9488.942457 C 8144.761809 8735.015366 9095.086364 6929.273851 9483.959649 6637.983838 C 9872.924583 6346.785455 9950.64425 7536.960344 10688.431179 7524.315481 C 11426.309758 7511.762246 11795.203223 7388.52064 12377.734119 7524.315481 C 12960.173366 7660.29358 12921.405183 9102.999225 13329.06683 9136.902121 C 13736.911778 9170.896646 14979.693239 9208.922866 15406.784802 10049.623044 C 15834.151318 10890.323222 16300.011064 12200.899204 16300.011064 12200.899204 C 16300.011064 12200.899204 8687.333066 14602.781902 5833.701536 13705.912873 Z M 5833.701536 13705.912873 " transform="matrix(0.0426211,0,0,-0.0426309,32.130581,832.803842)"/>
</g>
<path style=" stroke:none;fill-rule:nonzero;fill:rgb(97.648621%,78.819275%,19.999695%);fill-opacity:1;" d="M 287.421875 335.566406 C 287.421875 335.566406 202.089844 401.453125 169.300781 395.570312 C 136.515625 389.691406 243.6875 271.34375 287.082031 249.351562 C 287.082031 249.351562 317.105469 241.21875 319.191406 245.753906 C 329.238281 267.621094 287.421875 335.566406 287.421875 335.566406 "/>
<path style="fill:none;stroke-width:99.779999;stroke-linecap:round;stroke-linejoin:round;stroke:rgb(0%,0%,0%);stroke-opacity:1;stroke-miterlimit:10;" d="M 6335.393171 12336.765794 C 6335.393171 12336.765794 4217.76527 10702.075886 3404.061054 10848.032073 C 2590.453777 10993.891343 5250.066461 13930.16929 6326.959496 14475.808952 C 6326.959496 14475.808952 7072.031048 14677.589019 7123.796363 14565.069011 C 7373.122934 14022.530675 6335.393171 12336.765794 6335.393171 12336.765794 Z M 6335.393171 12336.765794 " transform="matrix(0.040296,0,0,-0.0403053,32.130581,832.803842)"/>
<path style=" stroke:none;fill-rule:nonzero;fill:rgb(97.648621%,78.819275%,19.999695%);fill-opacity:1;" d="M 406.019531 335.566406 C 406.019531 335.566406 491.351562 401.453125 524.136719 395.570312 C 556.925781 389.691406 449.75 271.34375 406.355469 249.351562 C 406.355469 249.351562 376.332031 241.21875 374.25 245.753906 C 364.199219 267.621094 406.019531 335.566406 406.019531 335.566406 "/>
<path style="fill:none;stroke-width:99.779999;stroke-linecap:round;stroke-linejoin:round;stroke:rgb(0%,0%,0%);stroke-opacity:1;stroke-miterlimit:10;" d="M 9278.551821 12336.765794 C 9278.551821 12336.765794 11396.179722 10702.075886 12209.786999 10848.032073 C 13023.491215 10993.891343 10363.781592 13930.16929 9286.888557 14475.808952 C 9286.888557 14475.808952 8541.817005 14677.589019 8490.148629 14565.069011 C 8240.725119 14022.530675 9278.551821 12336.765794 9278.551821 12336.765794 Z M 9278.551821 12336.765794 " transform="matrix(0.040296,0,0,-0.0403053,32.130581,832.803842)"/>
<path style=" stroke:none;fill-rule:nonzero;fill:rgb(97.648621%,78.819275%,19.999695%);fill-opacity:1;" d="M 455.648438 718.53125 C 455.648438 718.53125 449.265625 601.980469 422.042969 567.773438 C 426.839844 529.714844 417.273438 457.972656 402.542969 428.292969 C 380.910156 384.710938 353.351562 510.574219 353.351562 510.574219 C 353.351562 510.574219 366.65625 550.839844 386.710938 575.511719 C 386.5 575.84375 386.390625 576.039062 386.390625 576.039062 C 387.375 577.542969 386.675781 622.222656 386.675781 622.222656 C 386.675781 622.222656 393.046875 683.246094 417.835938 707.648438 C 425.570312 716.175781 428.316406 738.414062 434.222656 740.6875 C 434.222656 740.6875 466.386719 758.785156 455.648438 718.53125 "/>
<path style="fill:none;stroke-width:99.779999;stroke-linecap:round;stroke-linejoin:round;stroke:rgb(0%,0%,0%);stroke-opacity:1;stroke-miterlimit:10;" d="M 10510.159167 2835.173106 C 10510.159167 2835.173106 10351.761182 5726.869482 9676.194744 6575.56691 C 9795.23558 7519.823967 9557.832479 9299.791646 9192.276296 10036.162899 C 8655.429269 11117.459828 7971.526094 7994.714614 7971.526094 7994.714614 C 7971.526094 7994.714614 8301.699618 6995.699759 8799.383374 6383.575406 C 8794.148679 6375.337507 8791.434393 6370.491684 8791.434393 6370.491684 C 8815.862969 6333.178847 8798.510925 5224.648394 8798.510925 5224.648394 C 8798.510925 5224.648394 8956.618094 3710.619477 9571.791665 3105.18236 C 9763.730472 2893.613731 9831.878443 2341.868332 9978.449896 2285.462953 C 9978.449896 2285.462953 10776.643905 1836.449 10510.159167 2835.173106 Z M 10510.159167 2835.173106 " transform="matrix(0.040296,0,0,-0.0403053,32.130581,832.803842)"/>
<path style=" stroke:none;fill-rule:nonzero;fill:rgb(97.648621%,78.819275%,19.999695%);fill-opacity:1;" d="M 308.414062 575.511719 C 328.464844 550.839844 341.773438 510.574219 341.773438 510.574219 C 341.773438 510.574219 314.210938 384.710938 292.582031 428.292969 C 277.851562 457.972656 268.28125 529.714844 273.082031 567.773438 C 245.863281 601.980469 239.480469 718.53125 239.480469 718.53125 C 228.734375 758.785156 260.902344 740.6875 260.902344 740.6875 C 266.808594 738.414062 269.554688 716.175781 277.289062 707.648438 C 302.078125 683.246094 308.449219 622.222656 308.449219 622.222656 C 308.449219 622.222656 307.746094 577.542969 308.734375 576.039062 C 308.734375 576.039062 308.621094 575.84375 308.414062 575.511719 "/>
<path style="fill:none;stroke-width:99.779999;stroke-linecap:round;stroke-linejoin:round;stroke:rgb(0%,0%,0%);stroke-opacity:1;stroke-miterlimit:10;" d="M 6856.342237 6383.575406 C 7353.929054 6995.699759 7684.199516 7994.714614 7684.199516 7994.714614 C 7684.199516 7994.714614 7000.199403 11117.459828 6463.449315 10036.162899 C 6097.893132 9299.791646 5860.393093 7519.823967 5979.530867 6575.56691 C 5304.061368 5726.869482 5145.663383 2835.173106 5145.663383 2835.173106 C 4878.984767 1836.449 5677.275715 2285.462953 5677.275715 2285.462953 C 5823.847168 2341.868332 5891.995139 2893.613731 6083.933946 3105.18236 C 6699.107517 3710.619477 6857.214686 5224.648394 6857.214686 5224.648394 C 6857.214686 5224.648394 6839.765703 6333.178847 6864.291218 6370.491684 C 6864.291218 6370.491684 6861.479993 6375.337507 6856.342237 6383.575406 Z M 6856.342237 6383.575406 " transform="matrix(0.040296,0,0,-0.0403053,32.130581,832.803842)"/>
<path style=" stroke:none;fill-rule:nonzero;fill:rgb(0%,0%,0%);fill-opacity:1;" d="M 451.285156 672.335938 C 450.824219 668.582031 450.3125 664.703125 449.746094 660.746094 L 394.292969 660.746094 C 395.359375 664.5625 396.570312 668.457031 397.921875 672.335938 L 451.285156 672.335938 "/>
<path style="fill:none;stroke-width:99.779999;stroke-linecap:round;stroke-linejoin:round;stroke:rgb(0%,0%,0%);stroke-opacity:1;stroke-miterlimit:10;" d="M 10401.878537 3981.307146 C 10390.342821 4074.443863 10377.740778 4170.681906 10363.684653 4268.858279 L 8987.541569 4268.858279 C 9014.005859 4174.170898 9044.056884 4077.545189 9077.597706 3981.307146 Z M 10401.878537 3981.307146 " transform="matrix(0.040296,0,0,-0.0403053,32.130581,832.803842)"/>
<path style=" stroke:none;fill-rule:nonzero;fill:rgb(0%,0%,0%);fill-opacity:1;" d="M 297.203125 672.335938 C 298.554688 668.457031 299.761719 664.5625 300.835938 660.746094 L 245.378906 660.746094 C 244.816406 664.703125 244.304688 668.582031 243.832031 672.335938 L 297.203125 672.335938 "/>
<path style="fill:none;stroke-width:99.779999;stroke-linecap:round;stroke-linejoin:round;stroke:rgb(0%,0%,0%);stroke-opacity:1;stroke-miterlimit:10;" d="M 6578.127905 3981.307146 C 6611.668727 4077.545189 6641.622813 4174.170898 6668.280981 4268.858279 L 5291.944019 4268.858279 C 5278.081772 4170.681906 5265.38279 4074.443863 5253.653196 3981.307146 Z M 6578.127905 3981.307146 " transform="matrix(0.040296,0,0,-0.0403053,32.130581,832.803842)"/>
<path style=" stroke:none;fill-rule:nonzero;fill:rgb(97.648621%,78.819275%,19.999695%);fill-opacity:1;" d="M 418.445312 275.167969 C 430.859375 295.910156 405.734375 403.359375 402.542969 428.292969 C 399.582031 451.4375 367.359375 516.226562 345.636719 511.828125 C 323.914062 507.425781 302.296875 460.429688 292.582031 428.292969 C 285.402344 401.84375 258.53125 296.023438 273.007812 270.875 C 290.996094 239.613281 387.546875 223.539062 418.445312 275.167969 "/>
<path style="fill:none;stroke-width:99.779999;stroke-linecap:round;stroke-linejoin:round;stroke:rgb(0%,0%,0%);stroke-opacity:1;stroke-miterlimit:10;" d="M 9586.914117 13835.288077 C 9894.985596 13320.661682 9271.475289 10654.780654 9192.276296 10036.162899 C 9118.796692 9461.932881 8319.148601 7854.476499 7780.071981 7963.604431 C 7240.995362 8072.82928 6704.536089 9238.831194 6463.449315 10036.162899 C 6285.275816 10692.38424 5618.433869 13317.851105 5977.68903 13941.799265 C 6424.092165 14717.421684 8820.128276 15116.232911 9586.914117 13835.288077 Z M 9586.914117 13835.288077 " transform="matrix(0.040296,0,0,-0.0403053,32.130581,832.803842)"/>
<path style=" stroke:none;fill-rule:nonzero;fill:rgb(0%,0%,0%);fill-opacity:1;" d="M 400.859375 436.21875 C 401.542969 433.710938 402.066406 431.410156 402.386719 429.386719 L 292.921875 429.386719 C 293.601562 431.605469 294.34375 433.890625 295.132812 436.21875 L 400.859375 436.21875 "/>
<path style="fill:none;stroke-width:99.779999;stroke-linecap:round;stroke-linejoin:round;stroke:rgb(0%,0%,0%);stroke-opacity:1;stroke-miterlimit:10;" d="M 9150.495677 9839.519404 C 9167.459966 9901.739771 9180.449764 9958.823565 9188.398745 10009.02629 L 6471.88299 10009.02629 C 6488.750339 9953.977742 6507.16871 9897.281614 6526.750346 9839.519404 Z M 9150.495677 9839.519404 " transform="matrix(0.040296,0,0,-0.0403053,32.130581,832.803842)"/>
<path style=" stroke:none;fill-rule:nonzero;fill:rgb(0%,0%,0%);fill-opacity:1;" d="M 296.863281 441.1875 C 307.816406 471.71875 326.683594 507.988281 345.636719 511.828125 C 364.09375 515.566406 390.125 469.363281 399.351562 441.1875 L 296.863281 441.1875 "/>
<path style="fill:none;stroke-width:99.779999;stroke-linecap:round;stroke-linejoin:round;stroke:rgb(0%,0%,0%);stroke-opacity:1;stroke-miterlimit:10;" d="M 6569.69423 9716.241669 C 6841.510602 8958.742628 7309.724965 8058.87331 7780.071981 7963.604431 C 8238.107771 7870.85538 8884.107878 9017.183253 9113.077304 9716.241669 Z M 6569.69423 9716.241669 " transform="matrix(0.040296,0,0,-0.0403053,32.130581,832.803842)"/>
<path style=" stroke:none;fill-rule:nonzero;fill:rgb(0%,0%,0%);fill-opacity:1;" d="M 457.839844 733.078125 C 457.835938 733.078125 457.828125 733.078125 457.820312 733.078125 C 457.902344 729.390625 457.273438 724.640625 455.648438 718.53125 C 455.648438 718.53125 454.742188 702.105469 452.183594 679.785156 L 400.714844 679.785156 C 405.085938 690.554688 410.699219 700.617188 417.835938 707.648438 C 425.570312 716.175781 428.316406 738.414062 434.222656 740.6875 C 434.222656 740.6875 436.089844 741.730469 438.761719 742.761719 L 436.339844 757.503906 L 501.097656 779.851562 C 501.097656 779.851562 524.066406 769.292969 457.839844 733.078125 "/>
<g clip-path="url(#clip2)" clip-rule="nonzero">
<path style="fill:none;stroke-width:99.779999;stroke-linecap:round;stroke-linejoin:round;stroke:rgb(0%,0%,0%);stroke-opacity:1;stroke-miterlimit:10;" d="M 10564.44489 2474.256214 C 10564.44489 2474.256214 10564.251013 2474.256214 10564.057135 2474.256214 C 10566.09285 2565.745351 10550.485704 2683.595765 10510.159167 2835.173106 C 10510.159167 2835.173106 10487.669367 3242.706815 10424.174459 3796.487459 L 9146.908942 3796.487459 C 9255.383449 3529.288783 9394.684493 3279.631985 9571.791665 3105.18236 C 9763.730472 2893.613731 9831.878443 2341.868332 9978.449896 2285.462953 C 9978.449896 2285.462953 10024.786638 2259.586258 10091.092771 2234.000313 L 10030.990721 1868.237598 L 11638.042006 1313.778538 C 11638.042006 1313.778538 12208.042101 1575.743726 10564.44489 2474.256214 Z M 10564.44489 2474.256214 " transform="matrix(0.040296,0,0,-0.0403053,32.130581,832.803842)"/>
</g>
<path style=" stroke:none;fill-rule:nonzero;fill:rgb(0%,0%,0%);fill-opacity:1;" d="M 277.289062 707.648438 C 284.429688 700.617188 290.035156 690.554688 294.410156 679.785156 L 242.945312 679.785156 C 240.378906 702.105469 239.480469 718.53125 239.480469 718.53125 C 237.199219 727.074219 236.863281 732.972656 237.734375 736.984375 C 180.160156 770.054688 201.441406 779.851562 201.441406 779.851562 L 266.199219 757.503906 L 263.78125 742.761719 C 263.78125 742.761719 263.015625 741.667969 261.734375 740.207031 C 267.082031 736.289062 269.925781 715.765625 277.289062 707.648438 "/>
<g clip-path="url(#clip3)" clip-rule="nonzero">
<path style="fill:none;stroke-width:99.779999;stroke-linecap:round;stroke-linejoin:round;stroke:rgb(0%,0%,0%);stroke-opacity:1;stroke-miterlimit:10;" d="M 6083.933946 3105.18236 C 6261.138057 3279.631985 6400.245223 3529.288783 6508.816669 3796.487459 L 5231.648091 3796.487459 C 5167.959305 3242.706815 5145.663383 2835.173106 5145.663383 2835.173106 C 5089.051128 2623.216811 5080.714392 2476.872958 5102.331743 2377.339755 C 3673.550894 1556.845017 4201.673431 1313.778538 4201.673431 1313.778538 L 5808.724717 1868.237598 L 5748.719605 2234.000313 C 5748.719605 2234.000313 5729.719602 2261.136922 5697.923678 2297.383677 C 5830.632884 2394.590885 5901.204324 2903.789959 6083.933946 3105.18236 Z M 6083.933946 3105.18236 " transform="matrix(0.040296,0,0,-0.0403053,32.130581,832.803842)"/>
</g>
<path style=" stroke:none;fill-rule:nonzero;fill:rgb(0%,0%,0%);fill-opacity:1;" d="M 424.65625 431.230469 C 444.050781 429.097656 496.941406 420.003906 543.949219 382.199219 C 490.570312 389.648438 472.59375 376.910156 472.59375 376.910156 C 472.59375 376.910156 453.136719 378.136719 421.761719 414.59375 L 405.386719 418.953125 C 395.652344 441.765625 415.644531 472.894531 415.644531 472.894531 C 415.644531 472.894531 440.183594 473.65625 441.019531 464.871094 C 441.144531 463.570312 424.75 432.117188 424.75 432.117188 C 424.75 432.117188 424.714844 431.789062 424.65625 431.230469 "/>
<path style="fill:none;stroke-width:99.779999;stroke-linecap:round;stroke-linejoin:round;stroke:rgb(0%,0%,0%);stroke-opacity:1;stroke-miterlimit:10;" d="M 9741.046795 9963.281722 C 10222.347895 10016.198108 11534.899132 10241.819624 12701.46055 11179.777111 C 11376.791963 10994.957424 10930.679645 11311.001996 10930.679645 11311.001996 C 10930.679645 11311.001996 10447.827524 11280.570228 9669.215151 10376.048919 L 9262.847736 10267.890151 C 9021.276268 9701.898033 9517.409003 8929.570774 9517.409003 8929.570774 C 9517.409003 8929.570774 10126.378491 8910.672065 10147.123393 9128.63718 C 10150.225434 9160.910361 9743.373326 9941.281686 9743.373326 9941.281686 C 9743.373326 9941.281686 9742.500877 9949.422668 9741.046795 9963.281722 Z M 9741.046795 9963.281722 " transform="matrix(0.040296,0,0,-0.0403053,32.130581,832.803842)"/>
<path style=" stroke:none;fill-rule:nonzero;fill:rgb(0%,0%,0%);fill-opacity:1;" d="M 288.050781 418.953125 L 270.816406 414.371094 C 270.648438 414.179688 270.488281 414.007812 270.324219 413.816406 C 270.316406 413.6875 270.292969 413.660156 270.257812 413.746094 C 240.273438 379.933594 221.792969 378.785156 221.792969 378.785156 C 221.792969 378.785156 203.820312 391.519531 150.4375 384.070312 C 196.285156 420.941406 247.753906 430.507812 268.257812 432.933594 C 265.6875 437.882812 252.308594 463.695312 252.421875 464.871094 C 253.253906 473.65625 277.796875 472.894531 277.796875 472.894531 C 277.796875 472.894531 297.789062 441.765625 288.050781 418.953125 "/>
<path style="fill:none;stroke-width:99.779999;stroke-linecap:round;stroke-linejoin:round;stroke:rgb(0%,0%,0%);stroke-opacity:1;stroke-miterlimit:10;" d="M 6351.000316 10267.890151 L 5923.306368 10381.573157 C 5919.138 10386.322064 5915.16351 10390.586388 5911.092081 10395.335295 C 5910.898203 10398.533538 5910.31657 10399.211953 5909.444121 10397.079791 C 5165.341957 11235.988657 4706.724535 11264.482096 4706.724535 11264.482096 C 4706.724535 11264.482096 4260.709155 10948.53444 2935.94363 11133.354127 C 4073.714226 10218.559674 5350.979743 9981.211267 5859.81146 9921.026146 C 5796.025735 9798.232993 5464.010374 9157.809034 5466.821599 9128.63718 C 5487.469562 8910.672065 6096.535989 8929.570774 6096.535989 8929.570774 C 6096.535989 8929.570774 6592.668724 9701.898033 6351.000316 10267.890151 Z M 6351.000316 10267.890151 " transform="matrix(0.040296,0,0,-0.0403053,32.130581,832.803842)"/>
<path style=" stroke:none;fill-rule:nonzero;fill:rgb(0%,0%,0%);fill-opacity:1;" d="M 406.355469 249.351562 C 406.355469 249.351562 379.839844 242.171875 374.921875 245.070312 C 356.621094 240.445312 336.238281 240.972656 318.34375 244.980469 C 313.023438 242.332031 287.082031 249.351562 287.082031 249.351562 C 270.753906 257.625 269.03125 303.980469 269.03125 303.980469 L 310.488281 287.484375 L 344.582031 320.160156 L 375.757812 287.484375 L 421.664062 303.980469 C 421.664062 303.980469 422.6875 257.625 406.355469 249.351562 "/>
<path style="fill:none;stroke-width:99.779999;stroke-linecap:round;stroke-linejoin:round;stroke:rgb(0%,0%,0%);stroke-opacity:1;stroke-miterlimit:10;" d="M 9286.888557 14475.808952 C 9286.888557 14475.808952 8628.86804 14653.941403 8506.822101 14582.029391 C 8052.663863 14696.778478 7546.837249 14683.694756 7102.760645 14584.25847 C 6970.730011 14649.967829 6326.959496 14475.808952 6326.959496 14475.808952 C 5921.755348 14270.539893 5879.005341 13120.432278 5879.005341 13120.432278 L 6907.816735 13529.710483 L 7753.898508 12719.004307 L 8527.567003 13529.710483 L 9666.791681 13120.432278 C 9666.791681 13120.432278 9692.189644 14270.539893 9286.888557 14475.808952 Z M 9286.888557 14475.808952 " transform="matrix(0.040296,0,0,-0.0403053,32.130581,832.803842)"/>
<path style=" stroke:none;fill-rule:nonzero;fill:rgb(0%,0%,0%);fill-opacity:1;" d="M 344.695312 342.382812 L 311.460938 309.042969 L 273.382812 324.898438 L 271.476562 320.316406 L 312.625 303.179688 L 344.535156 335.191406 L 373.703125 303.195312 L 419.132812 320.285156 L 417.390625 324.933594 L 375.101562 309.027344 L 344.695312 342.382812 "/>
<path style="fill:none;stroke-width:99.779999;stroke-linecap:round;stroke-linejoin:round;stroke:rgb(0%,0%,0%);stroke-opacity:1;stroke-miterlimit:10;" d="M 7756.709732 12167.646574 L 6931.954494 12994.828548 L 5986.995154 12601.444642 L 5939.689024 12715.127648 L 6960.842254 13140.300152 L 7752.735242 12346.069774 L 8476.577198 13139.912487 L 9603.975344 12715.90298 L 9560.740643 12600.572394 L 8511.281286 12995.216214 Z M 7756.709732 12167.646574 " transform="matrix(0.040296,0,0,-0.0403053,32.130581,832.803842)"/>
<path style=" stroke:none;fill-rule:nonzero;fill:rgb(0%,0%,0%);fill-opacity:1;" d="M 287.320312 140.253906 L 280.492188 108.59375 L 310.59375 32.964844 L 323.941406 83.621094 L 336.972656 93.792969 L 287.320312 140.253906 "/>
<path style="fill:none;stroke-width:81.958;stroke-linecap:round;stroke-linejoin:round;stroke:rgb(0%,0%,0%);stroke-opacity:1;stroke-miterlimit:10;" d="M 5201.776647 14113.645254 L 5062.519207 14758.826243 L 5676.159623 16300.016757 L 5948.225187 15267.727175 L 6213.841435 15060.361787 Z M 5201.776647 14113.645254 " transform="matrix(0.0490604,0,0,-0.0490717,32.130581,832.803842)"/>
<path style=" stroke:none;fill-rule:nonzero;fill:rgb(0%,0%,0%);fill-opacity:1;" d="M 400.84375 137.496094 L 407.671875 105.835938 L 377.570312 30.207031 L 364.222656 80.859375 L 351.191406 91.039062 L 400.84375 137.496094 "/>
<g clip-path="url(#clip4)" clip-rule="nonzero">
<path style="fill:none;stroke-width:81.676003;stroke-linecap:round;stroke-linejoin:round;stroke:rgb(0%,0%,0%);stroke-opacity:1;stroke-miterlimit:10;" d="M 7489.947174 14121.098563 L 7628.657876 14764.114221 L 7017.156345 16299.973583 L 6746.083256 15271.307201 L 6481.279128 15064.637764 Z M 7489.947174 14121.098563 " transform="matrix(0.0492257,0,0,-0.049237,32.130581,832.803842)"/>
</g>
<path style=" stroke:none;fill-rule:nonzero;fill:rgb(97.648621%,78.819275%,19.999695%);fill-opacity:1;" d="M 362.8125 201.320312 L 326.351562 201.320312 L 312.777344 254.035156 C 322.519531 266.605469 368.140625 267.636719 376.386719 254.035156 L 362.8125 201.320312 "/>
<path style="fill:none;stroke-width:99.779999;stroke-linecap:round;stroke-linejoin:round;stroke:rgb(0%,0%,0%);stroke-opacity:1;stroke-miterlimit:10;" d="M 8206.311848 15667.493728 L 7301.485167 15667.493728 L 6964.622867 14359.606118 C 7206.388213 14047.728955 8338.536359 14022.14301 8543.077209 14359.606118 Z M 8206.311848 15667.493728 " transform="matrix(0.040296,0,0,-0.0403053,32.130581,832.803842)"/>
<path style=" stroke:none;fill-rule:nonzero;fill:rgb(100%,100%,100%);fill-opacity:1;" d="M 384.089844 96.628906 C 367.019531 83.625 316.441406 82.921875 299.867188 96.628906 C 285.800781 110.289062 283.992188 169.097656 303.277344 220.152344 C 311.464844 238.859375 373.917969 247.539062 385.921875 217.046875 C 395.859375 191.816406 402.664062 110.785156 384.089844 96.628906 "/>
<path style="fill:none;stroke-width:87.417999;stroke-linecap:round;stroke-linejoin:round;stroke:rgb(0%,0%,0%);stroke-opacity:1;stroke-miterlimit:10;" d="M 7652.216552 16002.065719 C 7281.158593 16284.816556 6181.403612 16300.015475 5821.046798 16002.065719 C 5515.214867 15705.219795 5475.892405 14426.897316 5895.275376 13317.121507 C 6073.288075 12910.486745 7431.059554 12721.816366 7692.133521 13384.625086 C 7908.109806 13932.974908 8056.057384 15694.436205 7652.216552 16002.065719 Z M 7652.216552 16002.065719 " transform="matrix(0.0459939,0,0,-0.0460045,32.130581,832.803842)"/>
<path style=" stroke:none;fill-rule:nonzero;fill:rgb(97.648621%,78.819275%,19.999695%);fill-opacity:1;" d="M 389.035156 91.246094 C 370.230469 81.582031 314.507812 81.066406 296.246094 91.246094 C 280.746094 101.394531 278.753906 141.773438 300.003906 179.707031 C 303.238281 184.683594 314.144531 188.710938 327.425781 190.78125 C 331.109375 183.472656 337.71875 178.578125 345.285156 178.578125 C 352.996094 178.578125 359.710938 183.652344 363.351562 191.183594 C 375.929688 189.320312 386.617188 184.996094 391.054688 177.402344 C 401.996094 158.660156 409.5 101.761719 389.035156 91.246094 "/>
<path style="fill:none;stroke-width:87.202003;stroke-linecap:round;stroke-linejoin:round;stroke:rgb(0%,0%,0%);stroke-opacity:1;stroke-miterlimit:10;" d="M 7740.4952 16079.204613 C 7332.643981 16288.75831 6124.170825 16300.023728 5728.09595 16079.204613 C 5391.919458 15859.147819 5348.796012 14983.579277 5809.598416 14161.119129 C 5879.748148 14053.208292 6116.37641 13965.880134 6404.430864 13920.98787 C 6484.238892 14079.466031 6627.588344 14185.598118 6791.694661 14185.598118 C 6958.935688 14185.598118 7104.572631 14075.569721 7183.533441 13912.348227 C 7456.337953 13952.666562 7688.137067 14046.432101 7784.296421 14211.093535 C 8021.68718 14617.495573 8184.437947 15851.185795 7740.4952 16079.204613 Z M 7740.4952 16079.204613 " transform="matrix(0.0461067,0,0,-0.0461174,32.130581,832.803842)"/>
<path style=" stroke:none;fill-rule:nonzero;fill:rgb(0%,0%,0%);fill-opacity:1;" d="M 270.277344 119.722656 C 270.015625 119.25 269.777344 118.769531 269.523438 118.296875 C 272.605469 137.898438 278.285156 158.839844 286.964844 179.367188 C 291.316406 188.246094 306.417969 195.351562 324.539062 198.769531 C 326.539062 187.238281 334.949219 178.582031 345.035156 178.582031 C 355.367188 178.582031 363.933594 187.683594 365.648438 199.652344 C 383.371094 196.828125 398.722656 189.320312 404.855469 175.40625 C 409.8125 164.160156 414.214844 144.894531 416.722656 123.835938 C 384.003906 152.855469 284.28125 141.734375 270.277344 119.722656 "/>
<path style="fill:none;stroke-width:91.745003;stroke-linecap:round;stroke-linejoin:round;stroke:rgb(0%,0%,0%);stroke-opacity:1;stroke-miterlimit:10;" d="M 5434.095819 16267.439196 C 5428.034916 16278.221553 5422.59793 16289.182132 5416.80442 16299.964489 C 5487.217848 15852.808543 5616.814208 15375.087732 5814.863115 14906.812622 C 5914.154962 14704.175591 6258.735104 14542.083788 6672.213449 14464.201306 C 6717.848481 14727.255183 6909.836486 14924.723811 7139.883394 14924.723811 C 7375.634681 14924.723811 7571.098792 14717.007487 7610.227267 14443.973247 C 8014.703389 14508.40006 8364.98791 14679.670233 8504.923457 14997.081449 C 8618.030596 15253.719378 8718.481145 15693.211831 8775.703196 16173.605953 C 8029.142598 15511.604852 5753.630172 15765.302138 5434.095819 16267.439196 Z M 5434.095819 16267.439196 " transform="matrix(0.043826,0,0,-0.0438361,32.130581,832.803842)"/>
<path style=" stroke:none;fill-rule:nonzero;fill:rgb(100%,100%,100%);fill-opacity:1;" d="M 357.890625 172.0625 C 357.890625 172.0625 364.289062 148.46875 392.96875 150.683594 C 394.511719 151.882812 382.40625 195.652344 357.890625 172.0625 "/>
<path style="fill:none;stroke-width:95.791;stroke-linecap:round;stroke-linejoin:round;stroke:rgb(0%,0%,0%);stroke-opacity:1;stroke-miterlimit:10;" d="M 7761.019215 15738.110887 C 7761.019215 15738.110887 7913.463272 16300.014196 8596.76258 16247.257254 C 8633.431053 16218.692207 8345.108899 15176.207579 7761.019215 15738.110887 Z M 7761.019215 15738.110887 " transform="matrix(0.0419724,0,0,-0.041982,32.130581,832.803842)"/>
<path style=" stroke:none;fill-rule:nonzero;fill:rgb(100%,100%,100%);fill-opacity:1;" d="M 332.765625 172.0625 C 332.765625 172.0625 326.367188 148.46875 297.683594 150.683594 C 296.144531 151.882812 308.25 195.652344 332.765625 172.0625 "/>
<path style="fill:none;stroke-width:95.791;stroke-linecap:round;stroke-linejoin:round;stroke:rgb(0%,0%,0%);stroke-opacity:1;stroke-miterlimit:10;" d="M 7162.411049 15738.110887 C 7162.411049 15738.110887 7010.060059 16300.014196 6326.667683 16247.257254 C 6289.99921 16218.692207 6578.321365 15176.207579 7162.411049 15738.110887 Z M 7162.411049 15738.110887 " transform="matrix(0.0419724,0,0,-0.041982,32.130581,832.803842)"/>
</g>
</svg>
