<svg width="372" height="55" viewBox="0 0 372 55" fill="none" xmlns="http://www.w3.org/2000/svg">
<g clip-path="url(#clip0_75_75)">
<path d="M372 43.75L356.375 39.1927C340.75 34.6354 309.5 25.5209 278.25 18.2292C247 10.9375 215.75 5.46878 184.5 2.73441C153.25 3.44515e-05 122 3.42727e-05 90.75 1.82295C59.5 3.64587 28.25 7.2917 -3 9.11462C-34.25 10.9375 -65.5 10.9375 -96.75 14.5834C-128 18.2292 -159.25 25.5209 -190.5 25.5209C-221.75 25.5209 -253 18.2292 -284.25 20.0521C-315.5 21.875 -346.75 32.8125 -378 35.5469C-409.25 38.2813 -440.5 32.8125 -471.75 31.9011C-503 30.9896 -534.25 34.6354 -565.5 36.4584C-596.75 38.2813 -628 38.2813 -659.25 35.5469C-690.5 32.8125 -721.75 27.3438 -753 27.3438C-784.25 27.3438 -815.5 32.8125 -846.75 30.9896C-878 29.1667 -909.25 20.0521 -940.5 13.6719C-971.75 7.2917 -1003 3.64587 -1034.25 10.0261C-1065.5 16.4063 -1096.75 32.8125 -1128 35.5469C-1159.25 38.2813 -1190.5 27.3438 -1221.75 20.9636C-1253 14.5834 -1284.25 12.7605 -1315.5 18.2292C-1346.75 23.698 -1378 36.4584 -1409.25 41.0157C-1440.5 45.5729 -1471.75 41.9271 -1503 41.0157C-1534.25 40.1042 -1565.5 41.9271 -1596.75 38.2813C-1628 34.6354 -1659.25 25.5209 -1690.5 23.698C-1721.75 21.875 -1753 27.3438 -1784.25 32.8125C-1815.5 38.2813 -1846.75 43.75 -1862.38 46.4844L-1878 49.2188V54.6875H-1862.38C-1846.75 54.6875 -1815.5 54.6875 -1784.25 54.6875C-1753 54.6875 -1721.75 54.6875 -1690.5 54.6875C-1659.25 54.6875 -1628 54.6875 -1596.75 54.6875C-1565.5 54.6875 -1534.25 54.6875 -1503 54.6875C-1471.75 54.6875 -1440.5 54.6875 -1409.25 54.6875C-1378 54.6875 -1346.75 54.6875 -1315.5 54.6875C-1284.25 54.6875 -1253 54.6875 -1221.75 54.6875C-1190.5 54.6875 -1159.25 54.6875 -1128 54.6875C-1096.75 54.6875 -1065.5 54.6875 -1034.25 54.6875C-1003 54.6875 -971.75 54.6875 -940.5 54.6875C-909.25 54.6875 -878 54.6875 -846.75 54.6875C-815.5 54.6875 -784.25 54.6875 -753 54.6875C-721.75 54.6875 -690.5 54.6875 -659.25 54.6875C-628 54.6875 -596.75 54.6875 -565.5 54.6875C-534.25 54.6875 -503 54.6875 -471.75 54.6875C-440.5 54.6875 -409.25 54.6875 -378 54.6875C-346.75 54.6875 -315.5 54.6875 -284.25 54.6875C-253 54.6875 -221.75 54.6875 -190.5 54.6875C-159.25 54.6875 -128 54.6875 -96.75 54.6875C-65.5 54.6875 -34.25 54.6875 -3 54.6875C28.25 54.6875 59.5 54.6875 90.75 54.6875C122 54.6875 153.25 54.6875 184.5 54.6875C215.75 54.6875 247 54.6875 278.25 54.6875C309.5 54.6875 340.75 54.6875 356.375 54.6875H372V43.75Z" fill="url(#paint0_linear_75_75)"/>
<path opacity="0.9" d="M372 5.46875L356.375 7.29167C340.75 9.11458 309.5 12.7604 278.25 17.3177C247 21.875 215.75 27.3437 184.5 25.5208C153.25 23.6979 122 14.5833 90.75 10.026C59.5 5.46875 28.25 5.46875 -3 11.849C-34.25 18.2292 -65.5 30.9896 -96.75 30.9896C-128 30.9896 -159.25 18.2292 -190.5 11.849C-221.75 5.46875 -253 5.46875 -284.25 10.026C-315.5 14.5833 -346.75 23.6979 -378 29.1667C-409.25 34.6354 -440.5 36.4583 -471.75 39.1927C-503 41.9271 -534.25 45.5729 -565.5 45.5729C-596.75 45.5729 -628 41.9271 -659.25 39.1927C-690.5 36.4583 -721.75 34.6354 -753 36.4583C-784.25 38.2812 -815.5 43.75 -846.75 43.75C-878 43.75 -909.25 38.2812 -940.5 30.9896C-971.75 23.6979 -1003 14.5833 -1034.25 17.3177C-1065.5 20.0521 -1096.75 34.6354 -1128 34.6354C-1159.25 34.6354 -1190.5 20.0521 -1221.75 20.0521C-1253 20.0521 -1284.25 34.6354 -1315.5 37.3698C-1346.75 40.1042 -1378 30.9896 -1409.25 27.3437C-1440.5 23.6979 -1471.75 25.5208 -1503 24.6094C-1534.25 23.6979 -1565.5 20.0521 -1596.75 20.9635C-1628 21.875 -1659.25 27.3437 -1690.5 30.0781C-1721.75 32.8125 -1753 32.8125 -1784.25 27.3437C-1815.5 21.875 -1846.75 10.9375 -1862.38 5.46875L-1878 0V54.6875H-1862.38C-1846.75 54.6875 -1815.5 54.6875 -1784.25 54.6875C-1753 54.6875 -1721.75 54.6875 -1690.5 54.6875C-1659.25 54.6875 -1628 54.6875 -1596.75 54.6875C-1565.5 54.6875 -1534.25 54.6875 -1503 54.6875C-1471.75 54.6875 -1440.5 54.6875 -1409.25 54.6875C-1378 54.6875 -1346.75 54.6875 -1315.5 54.6875C-1284.25 54.6875 -1253 54.6875 -1221.75 54.6875C-1190.5 54.6875 -1159.25 54.6875 -1128 54.6875C-1096.75 54.6875 -1065.5 54.6875 -1034.25 54.6875C-1003 54.6875 -971.75 54.6875 -940.5 54.6875C-909.25 54.6875 -878 54.6875 -846.75 54.6875C-815.5 54.6875 -784.25 54.6875 -753 54.6875C-721.75 54.6875 -690.5 54.6875 -659.25 54.6875C-628 54.6875 -596.75 54.6875 -565.5 54.6875C-534.25 54.6875 -503 54.6875 -471.75 54.6875C-440.5 54.6875 -409.25 54.6875 -378 54.6875C-346.75 54.6875 -315.5 54.6875 -284.25 54.6875C-253 54.6875 -221.75 54.6875 -190.5 54.6875C-159.25 54.6875 -128 54.6875 -96.75 54.6875C-65.5 54.6875 -34.25 54.6875 -3 54.6875C28.25 54.6875 59.5 54.6875 90.75 54.6875C122 54.6875 153.25 54.6875 184.5 54.6875C215.75 54.6875 247 54.6875 278.25 54.6875C309.5 54.6875 340.75 54.6875 356.375 54.6875H372V5.46875Z" fill="url(#paint1_linear_75_75)"/>
<g clip-path="url(#clip1_75_75)">
<path d="M-3 51.0417L12.625 46.4844C28.25 41.9271 59.5 32.8125 90.75 25.5208C122 18.2292 153.25 12.7604 184.5 10.026C215.75 7.29166 247 7.29166 278.25 9.11458C309.5 10.9375 340.75 14.5833 372 16.4062C403.25 18.2292 434.5 18.2292 465.75 21.875C497 25.5208 528.25 32.8125 559.5 32.8125C590.75 32.8125 622 25.5208 653.25 27.3437C684.5 29.1667 715.75 40.1042 747 42.8385C778.25 45.5729 809.5 40.1042 840.75 39.1927C872 38.2812 903.25 41.9271 934.5 43.75C965.75 45.5729 997 45.5729 1028.25 42.8385C1059.5 40.1042 1090.75 34.6354 1122 34.6354C1153.25 34.6354 1184.5 40.1042 1215.75 38.2812C1247 36.4583 1278.25 27.3437 1309.5 20.9635C1340.75 14.5833 1372 10.9375 1403.25 17.3177C1434.5 23.6979 1465.75 40.1042 1497 42.8385C1528.25 45.5729 1559.5 34.6354 1590.75 28.2552C1622 21.875 1653.25 20.0521 1684.5 25.5208C1715.75 30.9896 1747 43.75 1778.25 48.3073C1809.5 52.8646 1840.75 49.2187 1872 48.3073C1903.25 47.3958 1934.5 49.2187 1965.75 45.5729C1997 41.9271 2028.25 32.8125 2059.5 30.9896C2090.75 29.1667 2122 34.6354 2153.25 40.1042C2184.5 45.5729 2215.75 51.0417 2231.38 53.776L2247 56.5104V61.9792H2231.38C2215.75 61.9792 2184.5 61.9792 2153.25 61.9792C2122 61.9792 2090.75 61.9792 2059.5 61.9792C2028.25 61.9792 1997 61.9792 1965.75 61.9792C1934.5 61.9792 1903.25 61.9792 1872 61.9792C1840.75 61.9792 1809.5 61.9792 1778.25 61.9792C1747 61.9792 1715.75 61.9792 1684.5 61.9792C1653.25 61.9792 1622 61.9792 1590.75 61.9792C1559.5 61.9792 1528.25 61.9792 1497 61.9792C1465.75 61.9792 1434.5 61.9792 1403.25 61.9792C1372 61.9792 1340.75 61.9792 1309.5 61.9792C1278.25 61.9792 1247 61.9792 1215.75 61.9792C1184.5 61.9792 1153.25 61.9792 1122 61.9792C1090.75 61.9792 1059.5 61.9792 1028.25 61.9792C997 61.9792 965.75 61.9792 934.5 61.9792C903.25 61.9792 872 61.9792 840.75 61.9792C809.5 61.9792 778.25 61.9792 747 61.9792C715.75 61.9792 684.5 61.9792 653.25 61.9792C622 61.9792 590.75 61.9792 559.5 61.9792C528.25 61.9792 497 61.9792 465.75 61.9792C434.5 61.9792 403.25 61.9792 372 61.9792C340.75 61.9792 309.5 61.9792 278.25 61.9792C247 61.9792 215.75 61.9792 184.5 61.9792C153.25 61.9792 122 61.9792 90.75 61.9792C59.5 61.9792 28.25 61.9792 12.625 61.9792H-3V51.0417Z" fill="url(#paint2_linear_75_75)"/>
<path opacity="0.9" d="M-3 12.7604L12.625 14.5833C28.25 16.4062 59.5 20.052 90.75 24.6093C122 29.1666 153.25 34.6354 184.5 32.8125C215.75 30.9895 247 21.875 278.25 17.3177C309.5 12.7604 340.75 12.7604 372 19.1406C403.25 25.5208 434.5 38.2812 465.75 38.2812C497 38.2812 528.25 25.5208 559.5 19.1406C590.75 12.7604 622 12.7604 653.25 17.3177C684.5 21.875 715.75 30.9895 747 36.4583C778.25 41.927 809.5 43.75 840.75 46.4843C872 49.2187 903.25 52.8645 934.5 52.8645C965.75 52.8645 997 49.2187 1028.25 46.4843C1059.5 43.75 1090.75 41.927 1122 43.75C1153.25 45.5729 1184.5 51.0416 1215.75 51.0416C1247 51.0416 1278.25 45.5729 1309.5 38.2812C1340.75 30.9895 1372 21.875 1403.25 24.6093C1434.5 27.3437 1465.75 41.927 1497 41.927C1528.25 41.927 1559.5 27.3437 1590.75 27.3437C1622 27.3437 1653.25 41.927 1684.5 44.6614C1715.75 47.3958 1747 38.2812 1778.25 34.6354C1809.5 30.9895 1840.75 32.8125 1872 31.901C1903.25 30.9895 1934.5 27.3437 1965.75 28.2552C1997 29.1666 2028.25 34.6354 2059.5 37.3697C2090.75 40.1041 2122 40.1041 2153.25 34.6354C2184.5 29.1666 2215.75 18.2291 2231.38 12.7604L2247 7.29163V61.9791H2231.38C2215.75 61.9791 2184.5 61.9791 2153.25 61.9791C2122 61.9791 2090.75 61.9791 2059.5 61.9791C2028.25 61.9791 1997 61.9791 1965.75 61.9791C1934.5 61.9791 1903.25 61.9791 1872 61.9791C1840.75 61.9791 1809.5 61.9791 1778.25 61.9791C1747 61.9791 1715.75 61.9791 1684.5 61.9791C1653.25 61.9791 1622 61.9791 1590.75 61.9791C1559.5 61.9791 1528.25 61.9791 1497 61.9791C1465.75 61.9791 1434.5 61.9791 1403.25 61.9791C1372 61.9791 1340.75 61.9791 1309.5 61.9791C1278.25 61.9791 1247 61.9791 1215.75 61.9791C1184.5 61.9791 1153.25 61.9791 1122 61.9791C1090.75 61.9791 1059.5 61.9791 1028.25 61.9791C997 61.9791 965.75 61.9791 934.5 61.9791C903.25 61.9791 872 61.9791 840.75 61.9791C809.5 61.9791 778.25 61.9791 747 61.9791C715.75 61.9791 684.5 61.9791 653.25 61.9791C622 61.9791 590.75 61.9791 559.5 61.9791C528.25 61.9791 497 61.9791 465.75 61.9791C434.5 61.9791 403.25 61.9791 372 61.9791C340.75 61.9791 309.5 61.9791 278.25 61.9791C247 61.9791 215.75 61.9791 184.5 61.9791C153.25 61.9791 122 61.9791 90.75 61.9791C59.5 61.9791 28.25 61.9791 12.625 61.9791H-3V12.7604Z" fill="url(#paint3_linear_75_75)"/>
</g>
</g>
<defs>
<linearGradient id="paint0_linear_75_75" x1="372" y1="54.6875" x2="372" y2="0.55249" gradientUnits="userSpaceOnUse">
<stop/>
<stop offset="1" stop-color="white"/>
</linearGradient>
<linearGradient id="paint1_linear_75_75" x1="372" y1="54.6875" x2="372" y2="0" gradientUnits="userSpaceOnUse">
<stop/>
<stop offset="1" stop-opacity="0.64"/>
</linearGradient>
<linearGradient id="paint2_linear_75_75" x1="-3" y1="61.9792" x2="-3" y2="7.84412" gradientUnits="userSpaceOnUse">
<stop/>
<stop offset="1" stop-color="white"/>
</linearGradient>
<linearGradient id="paint3_linear_75_75" x1="-3" y1="61.9791" x2="-3" y2="7.29163" gradientUnits="userSpaceOnUse">
<stop/>
<stop offset="1" stop-opacity="0.64"/>
</linearGradient>
<clipPath id="clip0_75_75">
<rect width="375" height="54.6875" fill="white" transform="matrix(-1 0 0 1 372 0)"/>
</clipPath>
<clipPath id="clip1_75_75">
<rect width="375" height="54.6875" fill="white" transform="translate(-3 7.29163)"/>
</clipPath>
</defs>
</svg>
